<mxfile host="app.diagrams.net" modified="2024-04-12T11:24:30.336Z" agent="Mozilla/5.0 (Windows NT 10.0; Win64; x64) AppleWebKit/537.36 (KHTML, like Gecko) Chrome/123.0.0.0 Safari/537.36" etag="ItB8OFTeTLfMt--OoWIr" version="24.2.2" type="github">
  <diagram name="第 1 页" id="5MhkSksF49j_kYKcZ4iU">
    <mxGraphModel dx="1877" dy="1691" grid="1" gridSize="10" guides="1" tooltips="1" connect="1" arrows="1" fold="1" page="1" pageScale="1" pageWidth="827" pageHeight="1169" math="0" shadow="0">
      <root>
        <mxCell id="0" />
        <mxCell id="1" parent="0" />
        <UserObject label="" plantUmlData="{&quot;data&quot;:&quot;@startuml\n\nleft to right direction\n\nskinparam actor {\n    BackgroundColor DarkSeaGreen\n    BorderColor Black\n}\n\nactor 管理员 as Admin\n\nrectangle 管理员功能 {\n    usecase 用户注册与登录 as Register\n    usecase 角色管理 as Permission\n    usecase 用户信息维护 as Maintenance\n}\n\nAdmin --&gt; Register\nAdmin --&gt; Permission\nAdmin --&gt; Maintenance\n\n@enduml\n&quot;,&quot;format&quot;:&quot;svg&quot;}" id="mTEwnksnYja1e8k4IuZL-1">
          <mxCell style="shape=image;noLabel=1;verticalAlign=top;aspect=fixed;imageAspect=0;image=data:image/svg+xml,PD94bWwgdmVyc2lvbj0iMS4wIiBlbmNvZGluZz0idXMtYXNjaWkiIHN0YW5kYWxvbmU9Im5vIj8+PHN2ZyB4bWxucz0iaHR0cDovL3d3dy53My5vcmcvMjAwMC9zdmciIHhtbG5zOnhsaW5rPSJodHRwOi8vd3d3LnczLm9yZy8xOTk5L3hsaW5rIiBjb250ZW50U3R5bGVUeXBlPSJ0ZXh0L2NzcyIgaGVpZ2h0PSIyMjNweCIgcHJlc2VydmVBc3BlY3RSYXRpbz0ibm9uZSIgc3R5bGU9IndpZHRoOjI2OXB4O2hlaWdodDoyMjNweDtiYWNrZ3JvdW5kOiNGRkZGRkY7IiB2ZXJzaW9uPSIxLjEiIHZpZXdCb3g9IjAgMCAyNjkgMjIzIiB3aWR0aD0iMjY5cHgiIHpvb21BbmRQYW49Im1hZ25pZnkiPjxkZWZzLz48Zz48IS0tY2x1c3RlciA/Pz8/Py0tPjxnIGlkPSJjbHVzdGVyXyYjMzE2NDk7JiMyOTcwMjsmIzIxNTkyOyYjMjExNTE7JiMzMzAyMTsiPjxyZWN0IGZpbGw9Im5vbmUiIGhlaWdodD0iMjEwIiByeD0iMi41IiByeT0iMi41IiBzdHlsZT0ic3Ryb2tlOiMxODE4MTg7c3Ryb2tlLXdpZHRoOjEuMDsiIHdpZHRoPSIxNzEiIHg9IjkyIiB5PSI3Ii8+PHRleHQgZmlsbD0iIzAwMDAwMCIgZm9udC1mYW1pbHk9InNhbnMtc2VyaWYiIGZvbnQtc2l6ZT0iMTQiIGZvbnQtd2VpZ2h0PSJib2xkIiBsZW5ndGhBZGp1c3Q9InNwYWNpbmciIHRleHRMZW5ndGg9IjcwIiB4PSIxNDIuNSIgeT0iMjIuMjM0NCI+JiMzMTY0OTsmIzI5NzAyOyYjMjE1OTI7JiMyMTE1MTsmIzMzMDIxOzwvdGV4dD48L2c+PGcgaWQ9ImVsZW1fUmVnaXN0ZXIiPjxlbGxpcHNlIGN4PSIxNzcuNTQ1NiIgY3k9IjU2LjgwOTEiIGZpbGw9IiNGMUYxRjEiIHJ4PSI2OS41NDU2IiByeT0iMTYuMzA5MSIgc3R5bGU9InN0cm9rZTojMTgxODE4O3N0cm9rZS13aWR0aDowLjU7Ii8+PHRleHQgZmlsbD0iIzAwMDAwMCIgZm9udC1mYW1pbHk9InNhbnMtc2VyaWYiIGZvbnQtc2l6ZT0iMTQiIGxlbmd0aEFkanVzdD0ic3BhY2luZyIgdGV4dExlbmd0aD0iOTgiIHg9IjEyOC41NDU2IiB5PSI2MC41NTEzIj4mIzI5OTkyOyYjMjUxNDM7JiMyNzg4MDsmIzIwODc2OyYjMTk5ODI7JiMzMDMzMTsmIzI0NDA1OzwvdGV4dD48L2c+PGcgaWQ9ImVsZW1fUGVybWlzc2lvbiI+PGVsbGlwc2UgY3g9IjE3Ny41ODMzIiBjeT0iMTIyLjA5NTYiIGZpbGw9IiNGMUYxRjEiIHJ4PSI1MS4wODMzIiByeT0iMTMuNTk1NiIgc3R5bGU9InN0cm9rZTojMTgxODE4O3N0cm9rZS13aWR0aDowLjU7Ii8+PHRleHQgZmlsbD0iIzAwMDAwMCIgZm9udC1mYW1pbHk9InNhbnMtc2VyaWYiIGZvbnQtc2l6ZT0iMTQiIGxlbmd0aEFkanVzdD0ic3BhY2luZyIgdGV4dExlbmd0aD0iNTYiIHg9IjE0OS41ODMzIiB5PSIxMjUuODM3NyI+JiMzNTI4MjsmIzMzMzk0OyYjMzE2NDk7JiMyOTcwMjs8L3RleHQ+PC9nPjxnIGlkPSJlbGVtX01haW50ZW5hbmNlIj48ZWxsaXBzZSBjeD0iMTc3LjM4NzgiIGN5PSIxODYuMTc3NiIgZmlsbD0iI0YxRjFGMSIgcng9IjYzLjg4NzgiIHJ5PSIxNS4xNzc2IiBzdHlsZT0ic3Ryb2tlOiMxODE4MTg7c3Ryb2tlLXdpZHRoOjAuNTsiLz48dGV4dCBmaWxsPSIjMDAwMDAwIiBmb250LWZhbWlseT0ic2Fucy1zZXJpZiIgZm9udC1zaXplPSIxNCIgbGVuZ3RoQWRqdXN0PSJzcGFjaW5nIiB0ZXh0TGVuZ3RoPSI4NCIgeD0iMTM1LjM4NzgiIHk9IjE4OS45MTk3Ij4mIzI5OTkyOyYjMjUxNDM7JiMyMDQ0OTsmIzI0Njg3OyYjMzI1MDA7JiMyNTI1Mjs8L3RleHQ+PC9nPjwhLS1lbnRpdHkgQWRtaW4tLT48ZyBpZD0iZWxlbV9BZG1pbiI+PGVsbGlwc2UgY3g9IjI3IiBjeT0iOTMiIGZpbGw9IiM4RkJDOEYiIHJ4PSI4IiByeT0iOCIgc3R5bGU9InN0cm9rZTojMDAwMDAwO3N0cm9rZS13aWR0aDowLjU7Ii8+PHBhdGggZD0iTTI3LDEwMSBMMjcsMTI4IE0xNCwxMDkgTDQwLDEwOSBNMjcsMTI4IEwxNCwxNDMgTTI3LDEyOCBMNDAsMTQzICIgZmlsbD0ibm9uZSIgc3R5bGU9InN0cm9rZTojMDAwMDAwO3N0cm9rZS13aWR0aDowLjU7Ii8+PHRleHQgZmlsbD0iIzAwMDAwMCIgZm9udC1mYW1pbHk9InNhbnMtc2VyaWYiIGZvbnQtc2l6ZT0iMTQiIGxlbmd0aEFkanVzdD0ic3BhY2luZyIgdGV4dExlbmd0aD0iNDIiIHg9IjYiIHk9IjE1Ny43MzQ0Ij4mIzMxNjQ5OyYjMjk3MDI7JiMyMTU5Mjs8L3RleHQ+PC9nPjwhLS1saW5rIEFkbWluIHRvIFJlZ2lzdGVyLS0+PGcgaWQ9ImxpbmtfQWRtaW5fUmVnaXN0ZXIiPjxwYXRoIGQ9Ik00OC4wOSwxMDkuOSBDNTguNTksMTAzLjgyIDcxLjc3LDk2LjU5IDg0LDkxIEMxMDAuNjUsODMuMzkgMTEzLjg4NDIsNzguMjAyOSAxMzAuMjM0Miw3Mi40MTI5ICIgZmlsbD0ibm9uZSIgaWQ9IkFkbWluLXRvLVJlZ2lzdGVyIiBzdHlsZT0ic3Ryb2tlOiMxODE4MTg7c3Ryb2tlLXdpZHRoOjEuMDsiLz48cG9seWdvbiBmaWxsPSIjMTgxODE4IiBwb2ludHM9IjEzNS44OSw3MC40MSwxMjYuMDcxLDY5LjY0MzgsMTMxLjE3NjgsNzIuMDc5MSwxMjguNzQxNSw3Ny4xODQ5LDEzNS44OSw3MC40MSIgc3R5bGU9InN0cm9rZTojMTgxODE4O3N0cm9rZS13aWR0aDoxLjA7Ii8+PC9nPjwhLS1saW5rIEFkbWluIHRvIFBlcm1pc3Npb24tLT48ZyBpZD0ibGlua19BZG1pbl9QZXJtaXNzaW9uIj48cGF0aCBkPSJNNDguMDMsMTIyIEM2Ny45OCwxMjIgOTMuNDEsMTIyIDEyMC4xOSwxMjIgIiBmaWxsPSJub25lIiBpZD0iQWRtaW4tdG8tUGVybWlzc2lvbiIgc3R5bGU9InN0cm9rZTojMTgxODE4O3N0cm9rZS13aWR0aDoxLjA7Ii8+PHBvbHlnb24gZmlsbD0iIzE4MTgxOCIgcG9pbnRzPSIxMjYuMTksMTIyLDExNy4xOSwxMTgsMTIxLjE5LDEyMiwxMTcuMTksMTI2LDEyNi4xOSwxMjIiIHN0eWxlPSJzdHJva2U6IzE4MTgxODtzdHJva2Utd2lkdGg6MS4wOyIvPjwvZz48IS0tbGluayBBZG1pbiB0byBNYWludGVuYW5jZS0tPjxnIGlkPSJsaW5rX0FkbWluX01haW50ZW5hbmNlIj48cGF0aCBkPSJNNDguMDcsMTM0LjE1IEM1OC41NiwxNDAuMjQgNzEuNzUsMTQ3LjQ3IDg0LDE1MyBDMTAxLjU2LDE2MC45MyAxMTUuOTU3LDE2Ni4zNjU1IDEzMi45MDcsMTcyLjEwNTUgIiBmaWxsPSJub25lIiBpZD0iQWRtaW4tdG8tTWFpbnRlbmFuY2UiIHN0eWxlPSJzdHJva2U6IzE4MTgxODtzdHJva2Utd2lkdGg6MS4wOyIvPjxwb2x5Z29uIGZpbGw9IiMxODE4MTgiIHBvaW50cz0iMTM4LjU5LDE3NC4wMywxMzEuMzQ4NSwxNjcuMzU0NiwxMzMuODU0MiwxNzIuNDI2MiwxMjguNzgyNSwxNzQuOTMxOSwxMzguNTksMTc0LjAzIiBzdHlsZT0ic3Ryb2tlOiMxODE4MTg7c3Ryb2tlLXdpZHRoOjEuMDsiLz48L2c+PCEtLVNSQz1bUE96RElXRDE0OE50Vk9nd0dBdVc5MGdrMUQ0SjUzdGJzQ25DVHdaa2g4OEI0SzhDOFllQVBYSzJHaDlBRzBNNTRCbkN2a1NPd1N1ODR4Nk54dHJ5aHBnYjJtVkUwQWx1cWE2YWNBSEpIV2pYNHdNeG85VzFJY1NPLVdCeXd3MUNPWk96N0hzUXJBVDdvQ2F2dUo0SndIZW03MTdOUElWcmpCV0llWlFLWXNkdkNDV1ZObTRqakFEQy1QS21YcGZFZ01kcHFRSXdNVl9rekluOWpCdnpkWFYzaC05WmRXX2tEal90dk5ZTGhyLTJ2dW5ZUEh0bjd4Z1FGTE10eHhLbkdBVjRjUjhzX0VrX1RGQ3BCUXdOdlVncDZCcTUtMElMVGdISEltZ3R4bXc1TGtrV2NNZ1lGTjRKeFdjc10tLT48L2c+PC9zdmc+;" vertex="1" parent="1">
            <mxGeometry x="40" y="-780" width="269" height="223" as="geometry" />
          </mxCell>
        </UserObject>
        <UserObject label="" plantUmlData="{&quot;data&quot;:&quot;@startuml\n\nleft to right direction\n\nskinparam actor {\n    BackgroundColor LightBlue\n    BorderColor Black\n}\n\nactor 联络员 as User\n\nrectangle 用户功能 {\n    usecase 用户注册与登录 as Register\n    usecase 用户信息维护 as Maintenance\n}\n\nUser --&gt; Register\nUser --&gt; Maintenance\n\n@enduml\n&quot;,&quot;format&quot;:&quot;svg&quot;}" id="mTEwnksnYja1e8k4IuZL-2">
          <mxCell style="shape=image;noLabel=1;verticalAlign=top;aspect=fixed;imageAspect=0;image=data:image/svg+xml,PD94bWwgdmVyc2lvbj0iMS4wIiBlbmNvZGluZz0idXMtYXNjaWkiIHN0YW5kYWxvbmU9Im5vIj8+PHN2ZyB4bWxucz0iaHR0cDovL3d3dy53My5vcmcvMjAwMC9zdmciIHhtbG5zOnhsaW5rPSJodHRwOi8vd3d3LnczLm9yZy8xOTk5L3hsaW5rIiBjb250ZW50U3R5bGVUeXBlPSJ0ZXh0L2NzcyIgaGVpZ2h0PSIxNjFweCIgcHJlc2VydmVBc3BlY3RSYXRpbz0ibm9uZSIgc3R5bGU9IndpZHRoOjI2OXB4O2hlaWdodDoxNjFweDtiYWNrZ3JvdW5kOiNGRkZGRkY7IiB2ZXJzaW9uPSIxLjEiIHZpZXdCb3g9IjAgMCAyNjkgMTYxIiB3aWR0aD0iMjY5cHgiIHpvb21BbmRQYW49Im1hZ25pZnkiPjxkZWZzLz48Zz48IS0tY2x1c3RlciA/Pz8/LS0+PGcgaWQ9ImNsdXN0ZXJfJiMyOTk5MjsmIzI1MTQzOyYjMjExNTE7JiMzMzAyMTsiPjxyZWN0IGZpbGw9Im5vbmUiIGhlaWdodD0iMTQ4IiByeD0iMi41IiByeT0iMi41IiBzdHlsZT0ic3Ryb2tlOiMxODE4MTg7c3Ryb2tlLXdpZHRoOjEuMDsiIHdpZHRoPSIxNzEiIHg9IjkyIiB5PSI3Ii8+PHRleHQgZmlsbD0iIzAwMDAwMCIgZm9udC1mYW1pbHk9InNhbnMtc2VyaWYiIGZvbnQtc2l6ZT0iMTQiIGZvbnQtd2VpZ2h0PSJib2xkIiBsZW5ndGhBZGp1c3Q9InNwYWNpbmciIHRleHRMZW5ndGg9IjU2IiB4PSIxNDkuNSIgeT0iMjIuMjM0NCI+JiMyOTk5MjsmIzI1MTQzOyYjMjExNTE7JiMzMzAyMTs8L3RleHQ+PC9nPjxnIGlkPSJlbGVtX1JlZ2lzdGVyIj48ZWxsaXBzZSBjeD0iMTc3LjU0NTYiIGN5PSI1Ni44MDkxIiBmaWxsPSIjRjFGMUYxIiByeD0iNjkuNTQ1NiIgcnk9IjE2LjMwOTEiIHN0eWxlPSJzdHJva2U6IzE4MTgxODtzdHJva2Utd2lkdGg6MC41OyIvPjx0ZXh0IGZpbGw9IiMwMDAwMDAiIGZvbnQtZmFtaWx5PSJzYW5zLXNlcmlmIiBmb250LXNpemU9IjE0IiBsZW5ndGhBZGp1c3Q9InNwYWNpbmciIHRleHRMZW5ndGg9Ijk4IiB4PSIxMjguNTQ1NiIgeT0iNjAuNTUxMyI+JiMyOTk5MjsmIzI1MTQzOyYjMjc4ODA7JiMyMDg3NjsmIzE5OTgyOyYjMzAzMzE7JiMyNDQwNTs8L3RleHQ+PC9nPjxnIGlkPSJlbGVtX01haW50ZW5hbmNlIj48ZWxsaXBzZSBjeD0iMTc3LjM4NzgiIGN5PSIxMjQuMTc3NiIgZmlsbD0iI0YxRjFGMSIgcng9IjYzLjg4NzgiIHJ5PSIxNS4xNzc2IiBzdHlsZT0ic3Ryb2tlOiMxODE4MTg7c3Ryb2tlLXdpZHRoOjAuNTsiLz48dGV4dCBmaWxsPSIjMDAwMDAwIiBmb250LWZhbWlseT0ic2Fucy1zZXJpZiIgZm9udC1zaXplPSIxNCIgbGVuZ3RoQWRqdXN0PSJzcGFjaW5nIiB0ZXh0TGVuZ3RoPSI4NCIgeD0iMTM1LjM4NzgiIHk9IjEyNy45MTk3Ij4mIzI5OTkyOyYjMjUxNDM7JiMyMDQ0OTsmIzI0Njg3OyYjMzI1MDA7JiMyNTI1Mjs8L3RleHQ+PC9nPjwhLS1lbnRpdHkgVXNlci0tPjxnIGlkPSJlbGVtX1VzZXIiPjxlbGxpcHNlIGN4PSIyNyIgY3k9IjYyIiBmaWxsPSIjQUREOEU2IiByeD0iOCIgcnk9IjgiIHN0eWxlPSJzdHJva2U6IzAwMDAwMDtzdHJva2Utd2lkdGg6MC41OyIvPjxwYXRoIGQ9Ik0yNyw3MCBMMjcsOTcgTTE0LDc4IEw0MCw3OCBNMjcsOTcgTDE0LDExMiBNMjcsOTcgTDQwLDExMiAiIGZpbGw9Im5vbmUiIHN0eWxlPSJzdHJva2U6IzAwMDAwMDtzdHJva2Utd2lkdGg6MC41OyIvPjx0ZXh0IGZpbGw9IiMwMDAwMDAiIGZvbnQtZmFtaWx5PSJzYW5zLXNlcmlmIiBmb250LXNpemU9IjE0IiBsZW5ndGhBZGp1c3Q9InNwYWNpbmciIHRleHRMZW5ndGg9IjQyIiB4PSI2IiB5PSIxMjYuNzM0NCI+JiMzMjg1MjsmIzMyNDc2OyYjMjE1OTI7PC90ZXh0PjwvZz48IS0tbGluayBVc2VyIHRvIFJlZ2lzdGVyLS0+PGcgaWQ9ImxpbmtfVXNlcl9SZWdpc3RlciI+PHBhdGggZD0iTTQ4LjAzLDg2LjQxIEM2OC4xNCw4MS44MSA5NC4wNjE2LDc1Ljg4MDQgMTIwLjk4MTYsNjkuNzEwNCAiIGZpbGw9Im5vbmUiIGlkPSJVc2VyLXRvLVJlZ2lzdGVyIiBzdHlsZT0ic3Ryb2tlOiMxODE4MTg7c3Ryb2tlLXdpZHRoOjEuMDsiLz48cG9seWdvbiBmaWxsPSIjMTgxODE4IiBwb2ludHM9IjEyNi44Myw2OC4zNywxMTcuMTYzOCw2Ni40ODE3LDEyMS45NTY0LDY5LjQ4NywxMTguOTUxMSw3NC4yNzk1LDEyNi44Myw2OC4zNyIgc3R5bGU9InN0cm9rZTojMTgxODE4O3N0cm9rZS13aWR0aDoxLjA7Ii8+PC9nPjwhLS1saW5rIFVzZXIgdG8gTWFpbnRlbmFuY2UtLT48ZyBpZD0ibGlua19Vc2VyX01haW50ZW5hbmNlIj48cGF0aCBkPSJNNDguMDMsOTUuNDUgQzY5LjAxLDEwMC4xMSA5Ni44MzI2LDEwNi4yOTk1IDEyNC40NDI2LDExMi40Mjk1ICIgZmlsbD0ibm9uZSIgaWQ9IlVzZXItdG8tTWFpbnRlbmFuY2UiIHN0eWxlPSJzdHJva2U6IzE4MTgxODtzdHJva2Utd2lkdGg6MS4wOyIvPjxwb2x5Z29uIGZpbGw9IiMxODE4MTgiIHBvaW50cz0iMTMwLjMsMTEzLjczLDEyMi4zODA5LDEwNy44NzQ0LDEyNS40MTg5LDExMi42NDYzLDEyMC42NDcsMTE1LjY4NDIsMTMwLjMsMTEzLjczIiBzdHlsZT0ic3Ryb2tlOiMxODE4MTg7c3Ryb2tlLXdpZHRoOjEuMDsiLz48L2c+PCEtLVNSQz1bb3FiREFyNGVvTFNlb2FwRkE1NThvSW5BSkl4OXBDX1p1WWhFcGltaEkybkFwNUw4SjJ4OUJyQWV2YjgwMGdWNHZFcHFlbHBJbDFKZF8xb1dnMHo4Y3JERVFJZjREaHllOVJLODhrRUswckpBTFNsNTFUNy1lZDdBeXpycGRhd1NlUDFPaDExUWQ1aDRuR01vQVo0bEZJVEx1VmNLNVN5d2paX2pjbC1ZVUlfS2VqQllyRUo0T2ZaS2l5cWhkaFJyRkRkSHp0cGN4Z1R4ZnVCQzI0ZkRwb21rMFBnM2dWaDlfZU5GNmpTX3R4dGJNVFNJYTVCVm5Db3lhakl5bkJwYUw5MjNHQk9od0VoUThPbzBZbzJmMTAwMF0tLT48L2c+PC9zdmc+;" vertex="1" parent="1">
            <mxGeometry x="30" y="-547" width="269" height="161" as="geometry" />
          </mxCell>
        </UserObject>
        <UserObject label="" plantUmlData="{&quot;data&quot;:&quot;@startuml\n\nleft to right direction\n\nskinparam actor {\n    BackgroundColor LightBlue\n    BorderColor Black\n}\n\nactor 管理员 as Admin\n\n\nrectangle 通报功能 {\n    usecase 通报发布 as Publish\n    usecase 附件上传 as UploadAttachment\n    usecase 通报数据展示 as ShowData\n    usecase 通报删除 as DeleteReport\n    usecase 通报修改 as ModifyReport\n}\n\nAdmin --&gt; Publish\nAdmin --&gt; UploadAttachment\nAdmin --&gt; DeleteReport\nAdmin --&gt; ModifyReport\nAdmin --&gt; ShowData\n\n\n\n@enduml\n&quot;,&quot;format&quot;:&quot;svg&quot;}" id="mTEwnksnYja1e8k4IuZL-3">
          <mxCell style="shape=image;noLabel=1;verticalAlign=top;aspect=fixed;imageAspect=0;image=data:image/svg+xml,PD94bWwgdmVyc2lvbj0iMS4wIiBlbmNvZGluZz0idXMtYXNjaWkiIHN0YW5kYWxvbmU9Im5vIj8+PHN2ZyB4bWxucz0iaHR0cDovL3d3dy53My5vcmcvMjAwMC9zdmciIHhtbG5zOnhsaW5rPSJodHRwOi8vd3d3LnczLm9yZy8xOTk5L3hsaW5rIiBjb250ZW50U3R5bGVUeXBlPSJ0ZXh0L2NzcyIgaGVpZ2h0PSIzNDJweCIgcHJlc2VydmVBc3BlY3RSYXRpbz0ibm9uZSIgc3R5bGU9IndpZHRoOjI1OHB4O2hlaWdodDozNDJweDtiYWNrZ3JvdW5kOiNGRkZGRkY7IiB2ZXJzaW9uPSIxLjEiIHZpZXdCb3g9IjAgMCAyNTggMzQyIiB3aWR0aD0iMjU4cHgiIHpvb21BbmRQYW49Im1hZ25pZnkiPjxkZWZzLz48Zz48IS0tY2x1c3RlciA/Pz8/LS0+PGcgaWQ9ImNsdXN0ZXJfJiMzNjg5MDsmIzI1MjUzOyYjMjExNTE7JiMzMzAyMTsiPjxyZWN0IGZpbGw9Im5vbmUiIGhlaWdodD0iMzI5IiByeD0iMi41IiByeT0iMi41IiBzdHlsZT0ic3Ryb2tlOiMxODE4MTg7c3Ryb2tlLXdpZHRoOjEuMDsiIHdpZHRoPSIxNjAiIHg9IjkyIiB5PSI3Ii8+PHRleHQgZmlsbD0iIzAwMDAwMCIgZm9udC1mYW1pbHk9InNhbnMtc2VyaWYiIGZvbnQtc2l6ZT0iMTQiIGZvbnQtd2VpZ2h0PSJib2xkIiBsZW5ndGhBZGp1c3Q9InNwYWNpbmciIHRleHRMZW5ndGg9IjU2IiB4PSIxNDQiIHk9IjIyLjIzNDQiPiYjMzY4OTA7JiMyNTI1MzsmIzIxMTUxOyYjMzMwMjE7PC90ZXh0PjwvZz48ZyBpZD0iZWxlbV9QdWJsaXNoIj48ZWxsaXBzZSBjeD0iMTcyLjA4MzMiIGN5PSI1NC4wOTU2IiBmaWxsPSIjRjFGMUYxIiByeD0iNTEuMDgzMyIgcnk9IjEzLjU5NTYiIHN0eWxlPSJzdHJva2U6IzE4MTgxODtzdHJva2Utd2lkdGg6MC41OyIvPjx0ZXh0IGZpbGw9IiMwMDAwMDAiIGZvbnQtZmFtaWx5PSJzYW5zLXNlcmlmIiBmb250LXNpemU9IjE0IiBsZW5ndGhBZGp1c3Q9InNwYWNpbmciIHRleHRMZW5ndGg9IjU2IiB4PSIxNDQuMDgzMyIgeT0iNTcuODM3NyI+JiMzNjg5MDsmIzI1MjUzOyYjMjE0NTc7JiMyNDA2Nzs8L3RleHQ+PC9nPjxnIGlkPSJlbGVtX1VwbG9hZEF0dGFjaG1lbnQiPjxlbGxpcHNlIGN4PSIxNzIuMDgzMyIgY3k9IjExNi4wOTU2IiBmaWxsPSIjRjFGMUYxIiByeD0iNTEuMDgzMyIgcnk9IjEzLjU5NTYiIHN0eWxlPSJzdHJva2U6IzE4MTgxODtzdHJva2Utd2lkdGg6MC41OyIvPjx0ZXh0IGZpbGw9IiMwMDAwMDAiIGZvbnQtZmFtaWx5PSJzYW5zLXNlcmlmIiBmb250LXNpemU9IjE0IiBsZW5ndGhBZGp1c3Q9InNwYWNpbmciIHRleHRMZW5ndGg9IjU2IiB4PSIxNDQuMDgzMyIgeT0iMTE5LjgzNzciPiYjMzg0Njg7JiMyMDIxNDsmIzE5OTc4OyYjMjAyNTY7PC90ZXh0PjwvZz48ZyBpZD0iZWxlbV9TaG93RGF0YSI+PGVsbGlwc2UgY3g9IjE3MS44ODc4IiBjeT0iMTgwLjE3NzYiIGZpbGw9IiNGMUYxRjEiIHJ4PSI2My44ODc4IiByeT0iMTUuMTc3NiIgc3R5bGU9InN0cm9rZTojMTgxODE4O3N0cm9rZS13aWR0aDowLjU7Ii8+PHRleHQgZmlsbD0iIzAwMDAwMCIgZm9udC1mYW1pbHk9InNhbnMtc2VyaWYiIGZvbnQtc2l6ZT0iMTQiIGxlbmd0aEFkanVzdD0ic3BhY2luZyIgdGV4dExlbmd0aD0iODQiIHg9IjEyOS44ODc4IiB5PSIxODMuOTE5NyI+JiMzNjg5MDsmIzI1MjUzOyYjMjU5Njg7JiMyNTQ1NDsmIzIzNjM3OyYjMzEwMzQ7PC90ZXh0PjwvZz48ZyBpZD0iZWxlbV9EZWxldGVSZXBvcnQiPjxlbGxpcHNlIGN4PSIxNzIuMDgzMyIgY3k9IjI0NC4wOTU2IiBmaWxsPSIjRjFGMUYxIiByeD0iNTEuMDgzMyIgcnk9IjEzLjU5NTYiIHN0eWxlPSJzdHJva2U6IzE4MTgxODtzdHJva2Utd2lkdGg6MC41OyIvPjx0ZXh0IGZpbGw9IiMwMDAwMDAiIGZvbnQtZmFtaWx5PSJzYW5zLXNlcmlmIiBmb250LXNpemU9IjE0IiBsZW5ndGhBZGp1c3Q9InNwYWNpbmciIHRleHRMZW5ndGg9IjU2IiB4PSIxNDQuMDgzMyIgeT0iMjQ3LjgzNzciPiYjMzY4OTA7JiMyNTI1MzsmIzIxMDI0OyYjMzg1MDA7PC90ZXh0PjwvZz48ZyBpZD0iZWxlbV9Nb2RpZnlSZXBvcnQiPjxlbGxpcHNlIGN4PSIxNzIuMDgzMyIgY3k9IjMwNi4wOTU2IiBmaWxsPSIjRjFGMUYxIiByeD0iNTEuMDgzMyIgcnk9IjEzLjU5NTYiIHN0eWxlPSJzdHJva2U6IzE4MTgxODtzdHJva2Utd2lkdGg6MC41OyIvPjx0ZXh0IGZpbGw9IiMwMDAwMDAiIGZvbnQtZmFtaWx5PSJzYW5zLXNlcmlmIiBmb250LXNpemU9IjE0IiBsZW5ndGhBZGp1c3Q9InNwYWNpbmciIHRleHRMZW5ndGg9IjU2IiB4PSIxNDQuMDgzMyIgeT0iMzA5LjgzNzciPiYjMzY4OTA7JiMyNTI1MzsmIzIwNDYyOyYjMjU5MTM7PC90ZXh0PjwvZz48IS0tZW50aXR5IEFkbWluLS0+PGcgaWQ9ImVsZW1fQWRtaW4iPjxlbGxpcHNlIGN4PSIyNyIgY3k9IjE1MSIgZmlsbD0iI0FERDhFNiIgcng9IjgiIHJ5PSI4IiBzdHlsZT0ic3Ryb2tlOiMwMDAwMDA7c3Ryb2tlLXdpZHRoOjAuNTsiLz48cGF0aCBkPSJNMjcsMTU5IEwyNywxODYgTTE0LDE2NyBMNDAsMTY3IE0yNywxODYgTDE0LDIwMSBNMjcsMTg2IEw0MCwyMDEgIiBmaWxsPSJub25lIiBzdHlsZT0ic3Ryb2tlOiMwMDAwMDA7c3Ryb2tlLXdpZHRoOjAuNTsiLz48dGV4dCBmaWxsPSIjMDAwMDAwIiBmb250LWZhbWlseT0ic2Fucy1zZXJpZiIgZm9udC1zaXplPSIxNCIgbGVuZ3RoQWRqdXN0PSJzcGFjaW5nIiB0ZXh0TGVuZ3RoPSI0MiIgeD0iNiIgeT0iMjE1LjczNDQiPiYjMzE2NDk7JiMyOTcwMjsmIzIxNTkyOzwvdGV4dD48L2c+PCEtLWxpbmsgQWRtaW4gdG8gUHVibGlzaC0tPjxnIGlkPSJsaW5rX0FkbWluX1B1Ymxpc2giPjxwYXRoIGQ9Ik00Mi43MSwxNDIuMzMgQzUxLjk4LDEyMi44OCA2NS42OSwxMDAuMTIgODQsODUgQzk3LjM1LDczLjk3IDEwOS4xNjUzLDY4LjQyODEgMTI1LjAyNTMsNjMuNzQ4MSAiIGZpbGw9Im5vbmUiIGlkPSJBZG1pbi10by1QdWJsaXNoIiBzdHlsZT0ic3Ryb2tlOiMxODE4MTg7c3Ryb2tlLXdpZHRoOjEuMDsiLz48cG9seWdvbiBmaWxsPSIjMTgxODE4IiBwb2ludHM9IjEzMC43OCw2Mi4wNSwxMjEuMDE1OSw2MC43NjA3LDEyNS45ODQ0LDYzLjQ2NTEsMTIzLjI4LDY4LjQzMzYsMTMwLjc4LDYyLjA1IiBzdHlsZT0ic3Ryb2tlOiMxODE4MTg7c3Ryb2tlLXdpZHRoOjEuMDsiLz48L2c+PCEtLWxpbmsgQWRtaW4gdG8gVXBsb2FkQXR0YWNobWVudC0tPjxnIGlkPSJsaW5rX0FkbWluX1VwbG9hZEF0dGFjaG1lbnQiPjxwYXRoIGQ9Ik00OC4yNCwxNjYuODEgQzU4LjY2LDE2MC4zNSA3MS43MywxNTIuNzQgODQsMTQ3IEMxMDEuMjgsMTM4LjkyIDExNS42MDQ4LDEzMy41MzggMTMyLjA3NDgsMTI4LjA3OCAiIGZpbGw9Im5vbmUiIGlkPSJBZG1pbi10by1VcGxvYWRBdHRhY2htZW50IiBzdHlsZT0ic3Ryb2tlOiMxODE4MTg7c3Ryb2tlLXdpZHRoOjEuMDsiLz48cG9seWdvbiBmaWxsPSIjMTgxODE4IiBwb2ludHM9IjEzNy43NywxMjYuMTksMTI3Ljk2ODUsMTI1LjIyNTIsMTMzLjAyNCwxMjcuNzYzNCwxMzAuNDg1OSwxMzIuODE4OCwxMzcuNzcsMTI2LjE5IiBzdHlsZT0ic3Ryb2tlOiMxODE4MTg7c3Ryb2tlLXdpZHRoOjEuMDsiLz48L2c+PCEtLWxpbmsgQWRtaW4gdG8gRGVsZXRlUmVwb3J0LS0+PGcgaWQ9ImxpbmtfQWRtaW5fRGVsZXRlUmVwb3J0Ij48cGF0aCBkPSJNNDguMDUsMTkyLjU0IEM1OC41NCwxOTguODIgNzEuNzIsMjA2LjI4IDg0LDIxMiBDMTAxLjgsMjIwLjI5IDExNi43MTc2LDIyNS45ODQ2IDEzMy4zOTc2LDIzMS43MzQ2ICIgZmlsbD0ibm9uZSIgaWQ9IkFkbWluLXRvLURlbGV0ZVJlcG9ydCIgc3R5bGU9InN0cm9rZTojMTgxODE4O3N0cm9rZS13aWR0aDoxLjA7Ii8+PHBvbHlnb24gZmlsbD0iIzE4MTgxOCIgcG9pbnRzPSIxMzkuMDcsMjMzLjY5LDEzMS44NjUsMjI2Ljk3NTMsMTM0LjM0MywyMzIuMDYwNSwxMjkuMjU3OCwyMzQuNTM4NSwxMzkuMDcsMjMzLjY5IiBzdHlsZT0ic3Ryb2tlOiMxODE4MTg7c3Ryb2tlLXdpZHRoOjEuMDsiLz48L2c+PCEtLWxpbmsgQWRtaW4gdG8gTW9kaWZ5UmVwb3J0LS0+PGcgaWQ9ImxpbmtfQWRtaW5fTW9kaWZ5UmVwb3J0Ij48cGF0aCBkPSJNNDIuNzEsMjE3LjY3IEM1MS45OCwyMzcuMTIgNjUuNjksMjU5Ljg4IDg0LDI3NSBDOTcuMzUsMjg2LjAzIDEwOS4xNjUzLDI5MS41NzE5IDEyNS4wMjUzLDI5Ni4yNTE5ICIgZmlsbD0ibm9uZSIgaWQ9IkFkbWluLXRvLU1vZGlmeVJlcG9ydCIgc3R5bGU9InN0cm9rZTojMTgxODE4O3N0cm9rZS13aWR0aDoxLjA7Ii8+PHBvbHlnb24gZmlsbD0iIzE4MTgxOCIgcG9pbnRzPSIxMzAuNzgsMjk3Ljk1LDEyMy4yOCwyOTEuNTY2NCwxMjUuOTg0NCwyOTYuNTM0OSwxMjEuMDE1OSwyOTkuMjM5MywxMzAuNzgsMjk3Ljk1IiBzdHlsZT0ic3Ryb2tlOiMxODE4MTg7c3Ryb2tlLXdpZHRoOjEuMDsiLz48L2c+PCEtLWxpbmsgQWRtaW4gdG8gU2hvd0RhdGEtLT48ZyBpZD0ibGlua19BZG1pbl9TaG93RGF0YSI+PHBhdGggZD0iTTQ4LjE5LDE4MCBDNjMuODEsMTgwIDgwLjM2LDE4MCAxMDEuODcsMTgwICIgZmlsbD0ibm9uZSIgaWQ9IkFkbWluLXRvLVNob3dEYXRhIiBzdHlsZT0ic3Ryb2tlOiMxODE4MTg7c3Ryb2tlLXdpZHRoOjEuMDsiLz48cG9seWdvbiBmaWxsPSIjMTgxODE4IiBwb2ludHM9IjEwNy44NywxODAsOTguODcsMTc2LDEwMi44NywxODAsOTguODcsMTg0LDEwNy44NywxODAiIHN0eWxlPSJzdHJva2U6IzE4MTgxODtzdHJva2Utd2lkdGg6MS4wOyIvPjwvZz48IS0tU1JDPVtSUDFUSWlEMDU4TlZQbk1wV012MVFFb1pXWVdrdTlndkpPUEVDYzRvZUhHSFg4ZjhHQkhXbVZmWVhWZVF6NE5nN3N1Y0Z0T05QYW5qMjZPVXBfZEVGVlVFbUJ3Y01iQjU3TFRKblhOUWNha1ZhNzMwX0cwS1UxSGlCSEt6OWhIeTVqVzNIeWQ4UHpqSWJFZ0VZTGFZbWlnTFlnNmc3NGtLQTNhWGY4ZU5vS0RuVlB2RFJZYzRqQ2l5TmJPR0ttUS04djJrSmtfby0zNkJ4eF83ZC1rZ0E0R1JtZXJyRFNjTU9uRlVZdXU0M3pxY0NwakJ0cl9JUFBuLXAwcnA2MFc5aEFpcnNBdzdsY3VQYzQtVnlpaWFVdnVNWXBTSkVOM2JpMFNRc2hlbHZnbFBtYTB6NUFYbjdtRWZzY1FjTnFiLXlzaDBOU2J1VnhHNm9xX3VsUFhzRWJrUnpNbGJ0eEFyclVZaHZTUnFNbHV4dUdTMF0tLT48L2c+PC9zdmc+;" vertex="1" parent="1">
            <mxGeometry x="580" y="-770" width="258" height="342" as="geometry" />
          </mxCell>
        </UserObject>
        <UserObject label="" plantUmlData="{&quot;data&quot;:&quot;@startuml\n\nleft to right direction\n\nskinparam actor {\n    BackgroundColor LightBlue\n    BorderColor Black\n}\n\nactor 管理员 as Admin\n\nrectangle 二级单位功能 {\n    usecase 二级单位创建 as CreateSecondaryUnit\n    usecase 二级单位数据展示 as ShowSecondaryUnitData\n    usecase 二级单位删除 as DeleteSecondaryUnit\n    usecase 二级单位修改 as ModifySecondaryUnit\n}\n\nAdmin --&gt; CreateSecondaryUnit\nAdmin --&gt; DeleteSecondaryUnit\nAdmin --&gt; ModifySecondaryUnit\n\nShowSecondaryUnitData --&gt; ShowSecondaryUnitData : 分页显示\n\n@enduml\n&quot;,&quot;format&quot;:&quot;svg&quot;}" id="mTEwnksnYja1e8k4IuZL-4">
          <mxCell style="shape=image;noLabel=1;verticalAlign=top;aspect=fixed;imageAspect=0;image=data:image/svg+xml,PD94bWwgdmVyc2lvbj0iMS4wIiBlbmNvZGluZz0idXMtYXNjaWkiIHN0YW5kYWxvbmU9Im5vIj8+PHN2ZyB4bWxucz0iaHR0cDovL3d3dy53My5vcmcvMjAwMC9zdmciIHhtbG5zOnhsaW5rPSJodHRwOi8vd3d3LnczLm9yZy8xOTk5L3hsaW5rIiBjb250ZW50U3R5bGVUeXBlPSJ0ZXh0L2NzcyIgaGVpZ2h0PSIzMzZweCIgcHJlc2VydmVBc3BlY3RSYXRpbz0ibm9uZSIgc3R5bGU9IndpZHRoOjI4NHB4O2hlaWdodDozMzZweDtiYWNrZ3JvdW5kOiNGRkZGRkY7IiB2ZXJzaW9uPSIxLjEiIHZpZXdCb3g9IjAgMCAyODQgMzM2IiB3aWR0aD0iMjg0cHgiIHpvb21BbmRQYW49Im1hZ25pZnkiPjxkZWZzLz48Zz48IS0tY2x1c3RlciA/Pz8/Pz8tLT48ZyBpZD0iY2x1c3Rlcl8mIzIwMTA4OyYjMzI0MjM7JiMyMTMzMzsmIzIwMzAxOyYjMjExNTE7JiMzMzAyMTsiPjxyZWN0IGZpbGw9Im5vbmUiIGhlaWdodD0iMzIzIiByeD0iMi41IiByeT0iMi41IiBzdHlsZT0ic3Ryb2tlOiMxODE4MTg7c3Ryb2tlLXdpZHRoOjEuMDsiIHdpZHRoPSIxODMiIHg9Ijk1IiB5PSI3Ii8+PHRleHQgZmlsbD0iIzAwMDAwMCIgZm9udC1mYW1pbHk9InNhbnMtc2VyaWYiIGZvbnQtc2l6ZT0iMTQiIGZvbnQtd2VpZ2h0PSJib2xkIiBsZW5ndGhBZGp1c3Q9InNwYWNpbmciIHRleHRMZW5ndGg9Ijg0IiB4PSIxNDQuNSIgeT0iMjIuMjM0NCI+JiMyMDEwODsmIzMyNDIzOyYjMjEzMzM7JiMyMDMwMTsmIzIxMTUxOyYjMzMwMjE7PC90ZXh0PjwvZz48ZyBpZD0iZWxlbV9DcmVhdGVTZWNvbmRhcnlVbml0Ij48ZWxsaXBzZSBjeD0iMTg2LjM4NzgiIGN5PSI1NS4xNzc2IiBmaWxsPSIjRjFGMUYxIiByeD0iNjMuODg3OCIgcnk9IjE1LjE3NzYiIHN0eWxlPSJzdHJva2U6IzE4MTgxODtzdHJva2Utd2lkdGg6MC41OyIvPjx0ZXh0IGZpbGw9IiMwMDAwMDAiIGZvbnQtZmFtaWx5PSJzYW5zLXNlcmlmIiBmb250LXNpemU9IjE0IiBsZW5ndGhBZGp1c3Q9InNwYWNpbmciIHRleHRMZW5ndGg9Ijg0IiB4PSIxNDQuMzg3OCIgeT0iNTguOTE5NyI+JiMyMDEwODsmIzMyNDIzOyYjMjEzMzM7JiMyMDMwMTsmIzIxMDE5OyYjMjQzMTQ7PC90ZXh0PjwvZz48ZyBpZD0iZWxlbV9TaG93U2Vjb25kYXJ5VW5pdERhdGEiPjxlbGxpcHNlIGN4PSIxODYuNDM4NCIgY3k9IjE2NS45ODc3IiBmaWxsPSIjRjFGMUYxIiByeD0iNzUuNDM4NCIgcnk9IjE3LjQ4NzciIHN0eWxlPSJzdHJva2U6IzE4MTgxODtzdHJva2Utd2lkdGg6MC41OyIvPjx0ZXh0IGZpbGw9IiMwMDAwMDAiIGZvbnQtZmFtaWx5PSJzYW5zLXNlcmlmIiBmb250LXNpemU9IjE0IiBsZW5ndGhBZGp1c3Q9InNwYWNpbmciIHRleHRMZW5ndGg9IjExMiIgeD0iMTMwLjQzODQiIHk9IjE2OS43Mjk5Ij4mIzIwMTA4OyYjMzI0MjM7JiMyMTMzMzsmIzIwMzAxOyYjMjU5Njg7JiMyNTQ1NDsmIzIzNjM3OyYjMzEwMzQ7PC90ZXh0PjwvZz48ZyBpZD0iZWxlbV9EZWxldGVTZWNvbmRhcnlVbml0Ij48ZWxsaXBzZSBjeD0iMTg2LjM4NzgiIGN5PSIyMzQuMTc3NiIgZmlsbD0iI0YxRjFGMSIgcng9IjYzLjg4NzgiIHJ5PSIxNS4xNzc2IiBzdHlsZT0ic3Ryb2tlOiMxODE4MTg7c3Ryb2tlLXdpZHRoOjAuNTsiLz48dGV4dCBmaWxsPSIjMDAwMDAwIiBmb250LWZhbWlseT0ic2Fucy1zZXJpZiIgZm9udC1zaXplPSIxNCIgbGVuZ3RoQWRqdXN0PSJzcGFjaW5nIiB0ZXh0TGVuZ3RoPSI4NCIgeD0iMTQ0LjM4NzgiIHk9IjIzNy45MTk3Ij4mIzIwMTA4OyYjMzI0MjM7JiMyMTMzMzsmIzIwMzAxOyYjMjEwMjQ7JiMzODUwMDs8L3RleHQ+PC9nPjxnIGlkPSJlbGVtX01vZGlmeVNlY29uZGFyeVVuaXQiPjxlbGxpcHNlIGN4PSIxODYuMzg3OCIgY3k9IjI5OS4xNzc2IiBmaWxsPSIjRjFGMUYxIiByeD0iNjMuODg3OCIgcnk9IjE1LjE3NzYiIHN0eWxlPSJzdHJva2U6IzE4MTgxODtzdHJva2Utd2lkdGg6MC41OyIvPjx0ZXh0IGZpbGw9IiMwMDAwMDAiIGZvbnQtZmFtaWx5PSJzYW5zLXNlcmlmIiBmb250LXNpemU9IjE0IiBsZW5ndGhBZGp1c3Q9InNwYWNpbmciIHRleHRMZW5ndGg9Ijg0IiB4PSIxNDQuMzg3OCIgeT0iMzAyLjkxOTciPiYjMjAxMDg7JiMzMjQyMzsmIzIxMzMzOyYjMjAzMDE7JiMyMDQ2MjsmIzI1OTEzOzwvdGV4dD48L2c+PCEtLWVudGl0eSBBZG1pbi0tPjxnIGlkPSJlbGVtX0FkbWluIj48ZWxsaXBzZSBjeD0iMjciIGN5PSIyMDUiIGZpbGw9IiNBREQ4RTYiIHJ4PSI4IiByeT0iOCIgc3R5bGU9InN0cm9rZTojMDAwMDAwO3N0cm9rZS13aWR0aDowLjU7Ii8+PHBhdGggZD0iTTI3LDIxMyBMMjcsMjQwIE0xNCwyMjEgTDQwLDIyMSBNMjcsMjQwIEwxNCwyNTUgTTI3LDI0MCBMNDAsMjU1ICIgZmlsbD0ibm9uZSIgc3R5bGU9InN0cm9rZTojMDAwMDAwO3N0cm9rZS13aWR0aDowLjU7Ii8+PHRleHQgZmlsbD0iIzAwMDAwMCIgZm9udC1mYW1pbHk9InNhbnMtc2VyaWYiIGZvbnQtc2l6ZT0iMTQiIGxlbmd0aEFkanVzdD0ic3BhY2luZyIgdGV4dExlbmd0aD0iNDIiIHg9IjYiIHk9IjI2OS43MzQ0Ij4mIzMxNjQ5OyYjMjk3MDI7JiMyMTU5Mjs8L3RleHQ+PC9nPjwhLS1saW5rIEFkbWluIHRvIENyZWF0ZVNlY29uZGFyeVVuaXQtLT48ZyBpZD0ibGlua19BZG1pbl9DcmVhdGVTZWNvbmRhcnlVbml0Ij48cGF0aCBkPSJNMzQuMSwxOTYuMzYgQzQxLjMxLDE2My41MiA1Ni40NCwxMTYuNzYgODcsODggQzk5Ljc0LDc2LjAxIDExMS4yMTYsNzAuMDcwNCAxMjcuNjk2LDY1LjIwMDQgIiBmaWxsPSJub25lIiBpZD0iQWRtaW4tdG8tQ3JlYXRlU2Vjb25kYXJ5VW5pdCIgc3R5bGU9InN0cm9rZTojMTgxODE4O3N0cm9rZS13aWR0aDoxLjA7Ii8+PHBvbHlnb24gZmlsbD0iIzE4MTgxOCIgcG9pbnRzPSIxMzMuNDUsNjMuNSwxMjMuNjg1NCw2Mi4yMTQ1LDEyOC42NTUsNjQuOTE3LDEyNS45NTI1LDY5Ljg4NjYsMTMzLjQ1LDYzLjUiIHN0eWxlPSJzdHJva2U6IzE4MTgxODtzdHJva2Utd2lkdGg6MS4wOyIvPjwvZz48IS0tbGluayBBZG1pbiB0byBEZWxldGVTZWNvbmRhcnlVbml0LS0+PGcgaWQ9ImxpbmtfQWRtaW5fRGVsZXRlU2Vjb25kYXJ5VW5pdCI+PHBhdGggZD0iTTQ4LjI3LDIzNCBDNjcuMDQsMjM0IDg5Ljk4LDIzNCAxMTYuNDUsMjM0ICIgZmlsbD0ibm9uZSIgaWQ9IkFkbWluLXRvLURlbGV0ZVNlY29uZGFyeVVuaXQiIHN0eWxlPSJzdHJva2U6IzE4MTgxODtzdHJva2Utd2lkdGg6MS4wOyIvPjxwb2x5Z29uIGZpbGw9IiMxODE4MTgiIHBvaW50cz0iMTIyLjQ1LDIzNCwxMTMuNDUsMjMwLDExNy40NSwyMzQsMTEzLjQ1LDIzOCwxMjIuNDUsMjM0IiBzdHlsZT0ic3Ryb2tlOiMxODE4MTg7c3Ryb2tlLXdpZHRoOjEuMDsiLz48L2c+PCEtLWxpbmsgQWRtaW4gdG8gTW9kaWZ5U2Vjb25kYXJ5VW5pdC0tPjxnIGlkPSJsaW5rX0FkbWluX01vZGlmeVNlY29uZGFyeVVuaXQiPjxwYXRoIGQ9Ik00OC4wNCwyNDYgQzU5LjI2LDI1Mi40MyA3My42NCwyNjAuMTkgODcsMjY2IEMxMDUuODUsMjc0LjIgMTIxLjcyODEsMjc5LjgzNDYgMTM5Ljg4ODEsMjg1LjU2NDYgIiBmaWxsPSJub25lIiBpZD0iQWRtaW4tdG8tTW9kaWZ5U2Vjb25kYXJ5VW5pdCIgc3R5bGU9InN0cm9rZTojMTgxODE4O3N0cm9rZS13aWR0aDoxLjA7Ii8+PHBvbHlnb24gZmlsbD0iIzE4MTgxOCIgcG9pbnRzPSIxNDUuNjEsMjg3LjM3LDEzOC4yMzA3LDI4MC44NDcyLDE0MC44NDE3LDI4NS44NjU1LDEzNS44MjM1LDI4OC40NzY1LDE0NS42MSwyODcuMzciIHN0eWxlPSJzdHJva2U6IzE4MTgxODtzdHJva2Utd2lkdGg6MS4wOyIvPjwvZz48IS0tbGluayBTaG93U2Vjb25kYXJ5VW5pdERhdGEgdG8gU2hvd1NlY29uZGFyeVVuaXREYXRhLS0+PGcgaWQ9ImxpbmtfU2hvd1NlY29uZGFyeVVuaXREYXRhX1Nob3dTZWNvbmRhcnlVbml0RGF0YSI+PHBhdGggZD0iTTE3MC40MSwxNDguNzkgQzE2MS41MiwxMzEuOTggMTY2Ljg4LDExMy41IDE4Ni41LDExMy41IEMyMDYuMTIsMTEzLjUgMjE0LjI4NSwxMjYuNjc2IDIwNS4zOTUsMTQzLjQ4NiAiIGZpbGw9Im5vbmUiIGlkPSJTaG93U2Vjb25kYXJ5VW5pdERhdGEtdG8tU2hvd1NlY29uZGFyeVVuaXREYXRhIiBzdHlsZT0ic3Ryb2tlOiMxODE4MTg7c3Ryb2tlLXdpZHRoOjEuMDsiLz48cG9seWdvbiBmaWxsPSIjMTgxODE4IiBwb2ludHM9IjIwMi41OSwxNDguNzksMjEwLjMzMzUsMTQyLjcwNDEsMjA0LjkyNzUsMTQ0LjM3LDIwMy4yNjE1LDEzOC45NjQxLDIwMi41OSwxNDguNzkiIHN0eWxlPSJzdHJva2U6IzE4MTgxODtzdHJva2Utd2lkdGg6MS4wOyIvPjx0ZXh0IGZpbGw9IiMwMDAwMDAiIGZvbnQtZmFtaWx5PSJzYW5zLXNlcmlmIiBmb250LXNpemU9IjEzIiBsZW5ndGhBZGp1c3Q9InNwYWNpbmciIHRleHRMZW5ndGg9IjUyIiB4PSIxNjAuNSIgeT0iMTA2Ljc4OTEiPiYjMjA5OTg7JiMzOTAyOTsmIzI2MTc0OyYjMzEwMzQ7PC90ZXh0PjwvZz48IS0tU1JDPVtaUDExSWlEMDU4UnRTdWZ0V0x4MFhNM1FmUXdBMW5Xb2gtZEd3T25DOWZHWWhlSEluODIyV09lQkJISlMxTHN1QzVBekoyUW5qdDJJMkFLSW5MZEVfeHh0eU53MTBtRDZXVVIxcTAzWjZkdDNiSUdhNzc1dkdaS1QwX01EcWQxQW0zc0YtZ0QwZ3FZb2hYQmt6eDMyRjE1WGFvaERLM1U5OXptZUVJRWFtU2pxTUx4RHhGSzJRMFc3UkNvVGVkOUg2R1k0RkJpaWlxU1I5X2F3alhWdGQtVmhScnlLZWFfMzdtRnBFX2tNTE5rdzZnZDFGbGZBQ2dnZG52QVJOd2FZVUloWXIzdWR2UWZjLXFDcnNJNXhyRDBfZDAtUnNyTjV6TDNXVnZ0dkhyaFNsNVJLYU05eUNEc2JOM1RyNFQzZnhCVVVpYXRSZkRrcVJKYmZsUXlVUnFfc21DdmRjLUxCaU5YdDNOcTFdLS0+PC9nPjwvc3ZnPg==;" vertex="1" parent="1">
            <mxGeometry x="160" y="-636" width="284" height="336" as="geometry" />
          </mxCell>
        </UserObject>
        <UserObject label="" plantUmlData="{&#xa;  &quot;data&quot;: &quot;@startuml\n\nleft to right direction\n\nskinparam actor {\n    BackgroundColor LightBlue\n    BorderColor Black\n}\n\nactor 联络人 as Contact\nactor 管理员 as Admin\n\nrectangle 系统功能 {\n    usecase 查看通报信息 as ViewReportInfo\n    usecase 回复整改信息 as ReplyImprovementInfo\n    usecase 查看整改状态 as ViewImprovementStatus\n}\n\nContact --&gt; ViewReportInfo\nContact --&gt; ReplyImprovementInfo\nContact --&gt; ViewImprovementStatus\n\nAdmin --&gt; ViewImprovementStatus\n\n@enduml\n&quot;,&#xa;  &quot;format&quot;: &quot;svg&quot;&#xa;}" id="mTEwnksnYja1e8k4IuZL-5">
          <mxCell style="shape=image;noLabel=1;verticalAlign=top;aspect=fixed;imageAspect=0;image=data:image/svg+xml,PD94bWwgdmVyc2lvbj0iMS4wIiBlbmNvZGluZz0idXMtYXNjaWkiIHN0YW5kYWxvbmU9Im5vIj8+PHN2ZyB4bWxucz0iaHR0cDovL3d3dy53My5vcmcvMjAwMC9zdmciIHhtbG5zOnhsaW5rPSJodHRwOi8vd3d3LnczLm9yZy8xOTk5L3hsaW5rIiBjb250ZW50U3R5bGVUeXBlPSJ0ZXh0L2NzcyIgaGVpZ2h0PSIyNTJweCIgcHJlc2VydmVBc3BlY3RSYXRpbz0ibm9uZSIgc3R5bGU9IndpZHRoOjI1OHB4O2hlaWdodDoyNTJweDtiYWNrZ3JvdW5kOiNGRkZGRkY7IiB2ZXJzaW9uPSIxLjEiIHZpZXdCb3g9IjAgMCAyNTggMjUyIiB3aWR0aD0iMjU4cHgiIHpvb21BbmRQYW49Im1hZ25pZnkiPjxkZWZzLz48Zz48IS0tY2x1c3RlciA/Pz8/LS0+PGcgaWQ9ImNsdXN0ZXJfJiMzMTk5NTsmIzMyNDc5OyYjMjExNTE7JiMzMzAyMTsiPjxyZWN0IGZpbGw9Im5vbmUiIGhlaWdodD0iMjA5IiByeD0iMi41IiByeT0iMi41IiBzdHlsZT0ic3Ryb2tlOiMxODE4MTg7c3Ryb2tlLXdpZHRoOjEuMDsiIHdpZHRoPSIxNjAiIHg9IjkyIiB5PSI3Ii8+PHRleHQgZmlsbD0iIzAwMDAwMCIgZm9udC1mYW1pbHk9InNhbnMtc2VyaWYiIGZvbnQtc2l6ZT0iMTQiIGZvbnQtd2VpZ2h0PSJib2xkIiBsZW5ndGhBZGp1c3Q9InNwYWNpbmciIHRleHRMZW5ndGg9IjU2IiB4PSIxNDQiIHk9IjIyLjIzNDQiPiYjMzE5OTU7JiMzMjQ3OTsmIzIxMTUxOyYjMzMwMjE7PC90ZXh0PjwvZz48ZyBpZD0iZWxlbV9WaWV3UmVwb3J0SW5mbyI+PGVsbGlwc2UgY3g9IjE3MS44ODc4IiBjeT0iNTUuMTc3NiIgZmlsbD0iI0YxRjFGMSIgcng9IjYzLjg4NzgiIHJ5PSIxNS4xNzc2IiBzdHlsZT0ic3Ryb2tlOiMxODE4MTg7c3Ryb2tlLXdpZHRoOjAuNTsiLz48dGV4dCBmaWxsPSIjMDAwMDAwIiBmb250LWZhbWlseT0ic2Fucy1zZXJpZiIgZm9udC1zaXplPSIxNCIgbGVuZ3RoQWRqdXN0PSJzcGFjaW5nIiB0ZXh0TGVuZ3RoPSI4NCIgeD0iMTI5Ljg4NzgiIHk9IjU4LjkxOTciPiYjMjY1OTc7JiMzMDQ3NTsmIzM2ODkwOyYjMjUyNTM7JiMyMDQ0OTsmIzI0Njg3OzwvdGV4dD48L2c+PGcgaWQ9ImVsZW1fUmVwbHlJbXByb3ZlbWVudEluZm8iPjxlbGxpcHNlIGN4PSIxNzEuODg3OCIgY3k9IjEyMC4xNzc2IiBmaWxsPSIjRjFGMUYxIiByeD0iNjMuODg3OCIgcnk9IjE1LjE3NzYiIHN0eWxlPSJzdHJva2U6IzE4MTgxODtzdHJva2Utd2lkdGg6MC41OyIvPjx0ZXh0IGZpbGw9IiMwMDAwMDAiIGZvbnQtZmFtaWx5PSJzYW5zLXNlcmlmIiBmb250LXNpemU9IjE0IiBsZW5ndGhBZGp1c3Q9InNwYWNpbmciIHRleHRMZW5ndGg9Ijg0IiB4PSIxMjkuODg3OCIgeT0iMTIzLjkxOTciPiYjMjIyMzg7JiMyMjc5NzsmIzI1OTcyOyYjMjU5MTM7JiMyMDQ0OTsmIzI0Njg3OzwvdGV4dD48L2c+PGcgaWQ9ImVsZW1fVmlld0ltcHJvdmVtZW50U3RhdHVzIj48ZWxsaXBzZSBjeD0iMTcxLjg4NzgiIGN5PSIxODUuMTc3NiIgZmlsbD0iI0YxRjFGMSIgcng9IjYzLjg4NzgiIHJ5PSIxNS4xNzc2IiBzdHlsZT0ic3Ryb2tlOiMxODE4MTg7c3Ryb2tlLXdpZHRoOjAuNTsiLz48dGV4dCBmaWxsPSIjMDAwMDAwIiBmb250LWZhbWlseT0ic2Fucy1zZXJpZiIgZm9udC1zaXplPSIxNCIgbGVuZ3RoQWRqdXN0PSJzcGFjaW5nIiB0ZXh0TGVuZ3RoPSI4NCIgeD0iMTI5Ljg4NzgiIHk9IjE4OC45MTk3Ij4mIzI2NTk3OyYjMzA0NzU7JiMyNTk3MjsmIzI1OTEzOyYjMjkzNjY7JiMyNDU3Nzs8L3RleHQ+PC9nPjwhLS1lbnRpdHkgQ29udGFjdC0tPjxnIGlkPSJlbGVtX0NvbnRhY3QiPjxlbGxpcHNlIGN4PSIyNyIgY3k9IjY5IiBmaWxsPSIjQUREOEU2IiByeD0iOCIgcnk9IjgiIHN0eWxlPSJzdHJva2U6IzAwMDAwMDtzdHJva2Utd2lkdGg6MC41OyIvPjxwYXRoIGQ9Ik0yNyw3NyBMMjcsMTA0IE0xNCw4NSBMNDAsODUgTTI3LDEwNCBMMTQsMTE5IE0yNywxMDQgTDQwLDExOSAiIGZpbGw9Im5vbmUiIHN0eWxlPSJzdHJva2U6IzAwMDAwMDtzdHJva2Utd2lkdGg6MC41OyIvPjx0ZXh0IGZpbGw9IiMwMDAwMDAiIGZvbnQtZmFtaWx5PSJzYW5zLXNlcmlmIiBmb250LXNpemU9IjE0IiBsZW5ndGhBZGp1c3Q9InNwYWNpbmciIHRleHRMZW5ndGg9IjQyIiB4PSI2IiB5PSIxMzMuNzM0NCI+JiMzMjg1MjsmIzMyNDc2OyYjMjAxNTQ7PC90ZXh0PjwvZz48IS0tZW50aXR5IEFkbWluLS0+PGcgaWQ9ImVsZW1fQWRtaW4iPjxlbGxpcHNlIGN4PSIyNyIgY3k9IjE3OSIgZmlsbD0iI0FERDhFNiIgcng9IjgiIHJ5PSI4IiBzdHlsZT0ic3Ryb2tlOiMwMDAwMDA7c3Ryb2tlLXdpZHRoOjAuNTsiLz48cGF0aCBkPSJNMjcsMTg3IEwyNywyMTQgTTE0LDE5NSBMNDAsMTk1IE0yNywyMTQgTDE0LDIyOSBNMjcsMjE0IEw0MCwyMjkgIiBmaWxsPSJub25lIiBzdHlsZT0ic3Ryb2tlOiMwMDAwMDA7c3Ryb2tlLXdpZHRoOjAuNTsiLz48dGV4dCBmaWxsPSIjMDAwMDAwIiBmb250LWZhbWlseT0ic2Fucy1zZXJpZiIgZm9udC1zaXplPSIxNCIgbGVuZ3RoQWRqdXN0PSJzcGFjaW5nIiB0ZXh0TGVuZ3RoPSI0MiIgeD0iNiIgeT0iMjQzLjczNDQiPiYjMzE2NDk7JiMyOTcwMjsmIzIxNTkyOzwvdGV4dD48L2c+PCEtLWxpbmsgQ29udGFjdCB0byBWaWV3UmVwb3J0SW5mby0tPjxnIGlkPSJsaW5rX0NvbnRhY3RfVmlld1JlcG9ydEluZm8iPjxwYXRoIGQ9Ik00OC4xOSw5MS45MyBDNjkuODIsODUuNDMgOTguOTU0Miw3Ni42Njc4IDEyNi4wMjQyLDY4LjUyNzggIiBmaWxsPSJub25lIiBpZD0iQ29udGFjdC10by1WaWV3UmVwb3J0SW5mbyIgc3R5bGU9InN0cm9rZTojMTgxODE4O3N0cm9rZS13aWR0aDoxLjA7Ii8+PHBvbHlnb24gZmlsbD0iIzE4MTgxOCIgcG9pbnRzPSIxMzEuNzcsNjYuOCwxMjEuOTk5NCw2NS41NjExLDEyNi45ODE4LDY4LjIzOTgsMTI0LjMwMzEsNzMuMjIyMiwxMzEuNzcsNjYuOCIgc3R5bGU9InN0cm9rZTojMTgxODE4O3N0cm9rZS13aWR0aDoxLjA7Ii8+PC9nPjwhLS1saW5rIENvbnRhY3QgdG8gUmVwbHlJbXByb3ZlbWVudEluZm8tLT48ZyBpZD0ibGlua19Db250YWN0X1JlcGx5SW1wcm92ZW1lbnRJbmZvIj48cGF0aCBkPSJNNDguMTksMTAxLjExIEM2Ni4yOCwxMDMuODkgODcuNjk5OCwxMDcuMTg3NyAxMTIuMDA5OCwxMTAuOTI3NyAiIGZpbGw9Im5vbmUiIGlkPSJDb250YWN0LXRvLVJlcGx5SW1wcm92ZW1lbnRJbmZvIiBzdHlsZT0ic3Ryb2tlOiMxODE4MTg7c3Ryb2tlLXdpZHRoOjEuMDsiLz48cG9seWdvbiBmaWxsPSIjMTgxODE4IiBwb2ludHM9IjExNy45NCwxMTEuODQsMTA5LjY1MjksMTA2LjUxOCwxMTIuOTk4MSwxMTEuMDc5NywxMDguNDM2NCwxMTQuNDI1LDExNy45NCwxMTEuODQiIHN0eWxlPSJzdHJva2U6IzE4MTgxODtzdHJva2Utd2lkdGg6MS4wOyIvPjwvZz48IS0tbGluayBDb250YWN0IHRvIFZpZXdJbXByb3ZlbWVudFN0YXR1cy0tPjxnIGlkPSJsaW5rX0NvbnRhY3RfVmlld0ltcHJvdmVtZW50U3RhdHVzIj48cGF0aCBkPSJNNDguMDUsMTIxLjI2IEM1OC4wMywxMzEuNzQgNzAuNzcsMTQzLjYxIDg0LDE1MiBDOTguMTksMTYwLjk5IDEwOS41NDQxLDE2Ni4xNTU3IDEyNC43NTQxLDE3MS40NTU3ICIgZmlsbD0ibm9uZSIgaWQ9IkNvbnRhY3QtdG8tVmlld0ltcHJvdmVtZW50U3RhdHVzIiBzdHlsZT0ic3Ryb2tlOiMxODE4MTg7c3Ryb2tlLXdpZHRoOjEuMDsiLz48cG9seWdvbiBmaWxsPSIjMTgxODE4IiBwb2ludHM9IjEzMC40MiwxNzMuNDMsMTIzLjIzNzQsMTY2LjY5MTMsMTI1LjY5ODQsMTcxLjc4NDcsMTIwLjYwNSwxNzQuMjQ1OCwxMzAuNDIsMTczLjQzIiBzdHlsZT0ic3Ryb2tlOiMxODE4MTg7c3Ryb2tlLXdpZHRoOjEuMDsiLz48L2c+PCEtLWxpbmsgQWRtaW4gdG8gVmlld0ltcHJvdmVtZW50U3RhdHVzLS0+PGcgaWQ9ImxpbmtfQWRtaW5fVmlld0ltcHJvdmVtZW50U3RhdHVzIj48cGF0aCBkPSJNNDguMTksMjA0Ljc1IEM2Ni41MSwyMDEuODEgODguNDA2MiwxOTguMjgzNSAxMTIuOTQ2MiwxOTQuMzMzNSAiIGZpbGw9Im5vbmUiIGlkPSJBZG1pbi10by1WaWV3SW1wcm92ZW1lbnRTdGF0dXMiIHN0eWxlPSJzdHJva2U6IzE4MTgxODtzdHJva2Utd2lkdGg6MS4wOyIvPjxwb2x5Z29uIGZpbGw9IiMxODE4MTgiIHBvaW50cz0iMTE4Ljg3LDE5My4zOCwxMDkuMzQ4NywxOTAuODYxMSwxMTMuOTMzNSwxOTQuMTc0NiwxMTAuNjIsMTk4Ljc1OTQsMTE4Ljg3LDE5My4zOCIgc3R5bGU9InN0cm9rZTojMTgxODE4O3N0cm9rZS13aWR0aDoxLjA7Ii8+PC9nPjwhLS1TUkM9W1RQMzFJaUQwNTROdHluTmwxX2VCV2tjZ3U0aDFfUDJ5bmc2SmNKMlBBMjkyVy0wWThZWEs0MnM2V2p0Z0dYNWk0Ny1jY1FiX3VTSDRoQXRFeWpyeHZqeHRFRk9yUTBjQVhOaVEwZ1JHcnFtQUdmODE0cDVMRDBCZ1F3ZFdZODF4N2xLN2VQQWYyQmdJay1iTVpOYXluS1FMQWEzTEExdnRMZDlDSThDbGlmNGpuX0ZQMzZXMk5JY3E2eFVJVlBaT1l6Rmd5aGdNRGVFOGtWSXcxWEtYSHgxRmZJc0JBWXlNOXN6allKSDFkb084ZmZaUXlUZDd5Q1JhcV9keG42SUZ6Ry14MzAtc0NQUEF6cUhWX1dBZ3N4bGdfam5TRlBsSHdtX1dwRm9tNXlMQXhjRTRPWHJoU1hoQ3ZZemNjN3RkQjU0eGNrZXFnSFRranVERVBzRXJwQkJxUC1tZ2tudjBsWXhxbC00Sl0tLT48L2c+PC9zdmc+;" vertex="1" parent="1">
            <mxGeometry x="110" y="-300" width="258" height="252" as="geometry" />
          </mxCell>
        </UserObject>
        <UserObject label="" plantUmlData="{&quot;data&quot;:&quot;@startuml\n\nleft to right direction\n\nskinparam actor {\n    BackgroundColor LightBlue\n    BorderColor Black\n}\n\nactor 联络人 as Contact\nactor 管理员 as Admin\n\nrectangle 联络人反馈与整改 {\n    usecase 查看通报信息 as ViewBulletin\n    usecase 查看通报回复信息 as ViewReply\n    usecase 回复通报信息 as ReplyBulletin\n    usecase 回复整改信息 as ReplyImprovement\n    usecase 查看整改状态 as ViewImprovementStatus\n    usecase 修改整改状态 as ModifyImprovementStatus\n}\n\nContact --&gt; ViewBulletin\nContact --&gt; ReplyBulletin\nContact --&gt; ViewImprovementStatus\nContact --&gt; ReplyImprovement\n\nAdmin --&gt; ViewReply\nAdmin --&gt; ModifyImprovementStatus\n\n@enduml\n\n&quot;,&quot;format&quot;:&quot;svg&quot;}" id="mTEwnksnYja1e8k4IuZL-6">
          <mxCell style="shape=image;noLabel=1;verticalAlign=top;aspect=fixed;imageAspect=0;image=data:image/svg+xml,PD94bWwgdmVyc2lvbj0iMS4wIiBlbmNvZGluZz0idXMtYXNjaWkiIHN0YW5kYWxvbmU9Im5vIj8+PHN2ZyB4bWxucz0iaHR0cDovL3d3dy53My5vcmcvMjAwMC9zdmciIHhtbG5zOnhsaW5rPSJodHRwOi8vd3d3LnczLm9yZy8xOTk5L3hsaW5rIiBjb250ZW50U3R5bGVUeXBlPSJ0ZXh0L2NzcyIgaGVpZ2h0PSI0MjNweCIgcHJlc2VydmVBc3BlY3RSYXRpbz0ibm9uZSIgc3R5bGU9IndpZHRoOjI4MXB4O2hlaWdodDo0MjNweDtiYWNrZ3JvdW5kOiNGRkZGRkY7IiB2ZXJzaW9uPSIxLjEiIHZpZXdCb3g9IjAgMCAyODEgNDIzIiB3aWR0aD0iMjgxcHgiIHpvb21BbmRQYW49Im1hZ25pZnkiPjxkZWZzLz48Zz48IS0tY2x1c3RlciA/Pz8/Pz8/Py0tPjxnIGlkPSJjbHVzdGVyXyYjMzI4NTI7JiMzMjQ3NjsmIzIwMTU0OyYjMjE0NTM7JiMzOTMwNDsmIzE5OTgyOyYjMjU5NzI7JiMyNTkxMzsiPjxyZWN0IGZpbGw9Im5vbmUiIGhlaWdodD0iNDEwIiByeD0iMi41IiByeT0iMi41IiBzdHlsZT0ic3Ryb2tlOiMxODE4MTg7c3Ryb2tlLXdpZHRoOjEuMDsiIHdpZHRoPSIxODMiIHg9IjkyIiB5PSI3Ii8+PHRleHQgZmlsbD0iIzAwMDAwMCIgZm9udC1mYW1pbHk9InNhbnMtc2VyaWYiIGZvbnQtc2l6ZT0iMTQiIGZvbnQtd2VpZ2h0PSJib2xkIiBsZW5ndGhBZGp1c3Q9InNwYWNpbmciIHRleHRMZW5ndGg9IjExMiIgeD0iMTI3LjUiIHk9IjIyLjIzNDQiPiYjMzI4NTI7JiMzMjQ3NjsmIzIwMTU0OyYjMjE0NTM7JiMzOTMwNDsmIzE5OTgyOyYjMjU5NzI7JiMyNTkxMzs8L3RleHQ+PC9nPjxnIGlkPSJlbGVtX1ZpZXdCdWxsZXRpbiI+PGVsbGlwc2UgY3g9IjE4My4zODc4IiBjeT0iMTg1LjE3NzYiIGZpbGw9IiNGMUYxRjEiIHJ4PSI2My44ODc4IiByeT0iMTUuMTc3NiIgc3R5bGU9InN0cm9rZTojMTgxODE4O3N0cm9rZS13aWR0aDowLjU7Ii8+PHRleHQgZmlsbD0iIzAwMDAwMCIgZm9udC1mYW1pbHk9InNhbnMtc2VyaWYiIGZvbnQtc2l6ZT0iMTQiIGxlbmd0aEFkanVzdD0ic3BhY2luZyIgdGV4dExlbmd0aD0iODQiIHg9IjE0MS4zODc4IiB5PSIxODguOTE5NyI+JiMyNjU5NzsmIzMwNDc1OyYjMzY4OTA7JiMyNTI1MzsmIzIwNDQ5OyYjMjQ2ODc7PC90ZXh0PjwvZz48ZyBpZD0iZWxlbV9WaWV3UmVwbHkiPjxlbGxpcHNlIGN4PSIxODMuNDM4NCIgY3k9IjM4Mi45ODc3IiBmaWxsPSIjRjFGMUYxIiByeD0iNzUuNDM4NCIgcnk9IjE3LjQ4NzciIHN0eWxlPSJzdHJva2U6IzE4MTgxODtzdHJva2Utd2lkdGg6MC41OyIvPjx0ZXh0IGZpbGw9IiMwMDAwMDAiIGZvbnQtZmFtaWx5PSJzYW5zLXNlcmlmIiBmb250LXNpemU9IjE0IiBsZW5ndGhBZGp1c3Q9InNwYWNpbmciIHRleHRMZW5ndGg9IjExMiIgeD0iMTI3LjQzODQiIHk9IjM4Ni43Mjk5Ij4mIzI2NTk3OyYjMzA0NzU7JiMzNjg5MDsmIzI1MjUzOyYjMjIyMzg7JiMyMjc5NzsmIzIwNDQ5OyYjMjQ2ODc7PC90ZXh0PjwvZz48ZyBpZD0iZWxlbV9SZXBseUJ1bGxldGluIj48ZWxsaXBzZSBjeD0iMTgzLjM4NzgiIGN5PSIyNTAuMTc3NiIgZmlsbD0iI0YxRjFGMSIgcng9IjYzLjg4NzgiIHJ5PSIxNS4xNzc2IiBzdHlsZT0ic3Ryb2tlOiMxODE4MTg7c3Ryb2tlLXdpZHRoOjAuNTsiLz48dGV4dCBmaWxsPSIjMDAwMDAwIiBmb250LWZhbWlseT0ic2Fucy1zZXJpZiIgZm9udC1zaXplPSIxNCIgbGVuZ3RoQWRqdXN0PSJzcGFjaW5nIiB0ZXh0TGVuZ3RoPSI4NCIgeD0iMTQxLjM4NzgiIHk9IjI1My45MTk3Ij4mIzIyMjM4OyYjMjI3OTc7JiMzNjg5MDsmIzI1MjUzOyYjMjA0NDk7JiMyNDY4Nzs8L3RleHQ+PC9nPjxnIGlkPSJlbGVtX1JlcGx5SW1wcm92ZW1lbnQiPjxlbGxpcHNlIGN4PSIxODMuMzg3OCIgY3k9IjU1LjE3NzYiIGZpbGw9IiNGMUYxRjEiIHJ4PSI2My44ODc4IiByeT0iMTUuMTc3NiIgc3R5bGU9InN0cm9rZTojMTgxODE4O3N0cm9rZS13aWR0aDowLjU7Ii8+PHRleHQgZmlsbD0iIzAwMDAwMCIgZm9udC1mYW1pbHk9InNhbnMtc2VyaWYiIGZvbnQtc2l6ZT0iMTQiIGxlbmd0aEFkanVzdD0ic3BhY2luZyIgdGV4dExlbmd0aD0iODQiIHg9IjE0MS4zODc4IiB5PSI1OC45MTk3Ij4mIzIyMjM4OyYjMjI3OTc7JiMyNTk3MjsmIzI1OTEzOyYjMjA0NDk7JiMyNDY4Nzs8L3RleHQ+PC9nPjxnIGlkPSJlbGVtX1ZpZXdJbXByb3ZlbWVudFN0YXR1cyI+PGVsbGlwc2UgY3g9IjE4My4zODc4IiBjeT0iMTIwLjE3NzYiIGZpbGw9IiNGMUYxRjEiIHJ4PSI2My44ODc4IiByeT0iMTUuMTc3NiIgc3R5bGU9InN0cm9rZTojMTgxODE4O3N0cm9rZS13aWR0aDowLjU7Ii8+PHRleHQgZmlsbD0iIzAwMDAwMCIgZm9udC1mYW1pbHk9InNhbnMtc2VyaWYiIGZvbnQtc2l6ZT0iMTQiIGxlbmd0aEFkanVzdD0ic3BhY2luZyIgdGV4dExlbmd0aD0iODQiIHg9IjE0MS4zODc4IiB5PSIxMjMuOTE5NyI+JiMyNjU5NzsmIzMwNDc1OyYjMjU5NzI7JiMyNTkxMzsmIzI5MzY2OyYjMjQ1Nzc7PC90ZXh0PjwvZz48ZyBpZD0iZWxlbV9Nb2RpZnlJbXByb3ZlbWVudFN0YXR1cyI+PGVsbGlwc2UgY3g9IjE4My4zODc4IiBjeT0iMzE1LjE3NzYiIGZpbGw9IiNGMUYxRjEiIHJ4PSI2My44ODc4IiByeT0iMTUuMTc3NiIgc3R5bGU9InN0cm9rZTojMTgxODE4O3N0cm9rZS13aWR0aDowLjU7Ii8+PHRleHQgZmlsbD0iIzAwMDAwMCIgZm9udC1mYW1pbHk9InNhbnMtc2VyaWYiIGZvbnQtc2l6ZT0iMTQiIGxlbmd0aEFkanVzdD0ic3BhY2luZyIgdGV4dExlbmd0aD0iODQiIHg9IjE0MS4zODc4IiB5PSIzMTguOTE5NyI+JiMyMDQ2MjsmIzI1OTEzOyYjMjU5NzI7JiMyNTkxMzsmIzI5MzY2OyYjMjQ1Nzc7PC90ZXh0PjwvZz48IS0tZW50aXR5IENvbnRhY3QtLT48ZyBpZD0iZWxlbV9Db250YWN0Ij48ZWxsaXBzZSBjeD0iMjciIGN5PSIxMjQiIGZpbGw9IiNBREQ4RTYiIHJ4PSI4IiByeT0iOCIgc3R5bGU9InN0cm9rZTojMDAwMDAwO3N0cm9rZS13aWR0aDowLjU7Ii8+PHBhdGggZD0iTTI3LDEzMiBMMjcsMTU5IE0xNCwxNDAgTDQwLDE0MCBNMjcsMTU5IEwxNCwxNzQgTTI3LDE1OSBMNDAsMTc0ICIgZmlsbD0ibm9uZSIgc3R5bGU9InN0cm9rZTojMDAwMDAwO3N0cm9rZS13aWR0aDowLjU7Ii8+PHRleHQgZmlsbD0iIzAwMDAwMCIgZm9udC1mYW1pbHk9InNhbnMtc2VyaWYiIGZvbnQtc2l6ZT0iMTQiIGxlbmd0aEFkanVzdD0ic3BhY2luZyIgdGV4dExlbmd0aD0iNDIiIHg9IjYiIHk9IjE4OC43MzQ0Ij4mIzMyODUyOyYjMzI0NzY7JiMyMDE1NDs8L3RleHQ+PC9nPjwhLS1lbnRpdHkgQWRtaW4tLT48ZyBpZD0iZWxlbV9BZG1pbiI+PGVsbGlwc2UgY3g9IjI3IiBjeT0iMzIwIiBmaWxsPSIjQUREOEU2IiByeD0iOCIgcnk9IjgiIHN0eWxlPSJzdHJva2U6IzAwMDAwMDtzdHJva2Utd2lkdGg6MC41OyIvPjxwYXRoIGQ9Ik0yNywzMjggTDI3LDM1NSBNMTQsMzM2IEw0MCwzMzYgTTI3LDM1NSBMMTQsMzcwIE0yNywzNTUgTDQwLDM3MCAiIGZpbGw9Im5vbmUiIHN0eWxlPSJzdHJva2U6IzAwMDAwMDtzdHJva2Utd2lkdGg6MC41OyIvPjx0ZXh0IGZpbGw9IiMwMDAwMDAiIGZvbnQtZmFtaWx5PSJzYW5zLXNlcmlmIiBmb250LXNpemU9IjE0IiBsZW5ndGhBZGp1c3Q9InNwYWNpbmciIHRleHRMZW5ndGg9IjQyIiB4PSI2IiB5PSIzODQuNzM0NCI+JiMzMTY0OTsmIzI5NzAyOyYjMjE1OTI7PC90ZXh0PjwvZz48IS0tbGluayBDb250YWN0IHRvIFZpZXdCdWxsZXRpbi0tPjxnIGlkPSJsaW5rX0NvbnRhY3RfVmlld0J1bGxldGluIj48cGF0aCBkPSJNNDguMiwxNTcuMTggQzcwLjEyLDE2MS43MiAxMDAuMDE0NywxNjcuOTEzIDEyOS4xMjQ3LDE3My45NDMgIiBmaWxsPSJub25lIiBpZD0iQ29udGFjdC10by1WaWV3QnVsbGV0aW4iIHN0eWxlPSJzdHJva2U6IzE4MTgxODtzdHJva2Utd2lkdGg6MS4wOyIvPjxwb2x5Z29uIGZpbGw9IiMxODE4MTgiIHBvaW50cz0iMTM1LDE3NS4xNiwxMjYuOTk4NCwxNjkuNDE3NiwxMzAuMTAzOSwxNzQuMTQ1OCwxMjUuMzc1NywxNzcuMjUxMywxMzUsMTc1LjE2IiBzdHlsZT0ic3Ryb2tlOiMxODE4MTg7c3Ryb2tlLXdpZHRoOjEuMDsiLz48L2c+PCEtLWxpbmsgQ29udGFjdCB0byBSZXBseUJ1bGxldGluLS0+PGcgaWQ9ImxpbmtfQ29udGFjdF9SZXBseUJ1bGxldGluIj48cGF0aCBkPSJNNDguMTYsMTgyLjI3IEM1Ny44LDE5NC40NCA3MC4yNCwyMDcuODMgODQsMjE3IEM5OS42MSwyMjcuNCAxMTMuMDM3MiwyMzMuMDg1NSAxMzAuMzE3MiwyMzguMjA1NSAiIGZpbGw9Im5vbmUiIGlkPSJDb250YWN0LXRvLVJlcGx5QnVsbGV0aW4iIHN0eWxlPSJzdHJva2U6IzE4MTgxODtzdHJva2Utd2lkdGg6MS4wOyIvPjxwb2x5Z29uIGZpbGw9IiMxODE4MTgiIHBvaW50cz0iMTM2LjA3LDIzOS45MSwxMjguNTc3MiwyMzMuNTE4LDEzMS4yNzYsMjM4LjQ4OTYsMTI2LjMwNDUsMjQxLjE4ODQsMTM2LjA3LDIzOS45MSIgc3R5bGU9InN0cm9rZTojMTgxODE4O3N0cm9rZS13aWR0aDoxLjA7Ii8+PC9nPjwhLS1saW5rIENvbnRhY3QgdG8gVmlld0ltcHJvdmVtZW50U3RhdHVzLS0+PGcgaWQ9ImxpbmtfQ29udGFjdF9WaWV3SW1wcm92ZW1lbnRTdGF0dXMiPjxwYXRoIGQ9Ik00OC4yLDE0OC42OSBDNzAuMjgsMTQzLjk3IDEwMC41NTIyLDEzNy41MDI3IDEyOS43ODIyLDEzMS4yNjI3ICIgZmlsbD0ibm9uZSIgaWQ9IkNvbnRhY3QtdG8tVmlld0ltcHJvdmVtZW50U3RhdHVzIiBzdHlsZT0ic3Ryb2tlOiMxODE4MTg7c3Ryb2tlLXdpZHRoOjEuMDsiLz48cG9seWdvbiBmaWxsPSIjMTgxODE4IiBwb2ludHM9IjEzNS42NSwxMzAuMDEsMTI2LjAxMzIsMTI3Ljk3NzEsMTMwLjc2MDIsMTMxLjA1MzksMTI3LjY4MzQsMTM1LjgwMDgsMTM1LjY1LDEzMC4wMSIgc3R5bGU9InN0cm9rZTojMTgxODE4O3N0cm9rZS13aWR0aDoxLjA7Ii8+PC9nPjwhLS1saW5rIENvbnRhY3QgdG8gUmVwbHlJbXByb3ZlbWVudC0tPjxnIGlkPSJsaW5rX0NvbnRhY3RfUmVwbHlJbXByb3ZlbWVudCI+PHBhdGggZD0iTTQ4LjIxLDEyMi40IEM1Ny43OCwxMDkuOTMgNzAuMTUsOTYuMjkgODQsODcgQzk5LjE2LDc2Ljg0IDExMi4wMTY3LDcxLjM2ODUgMTI4Ljk3NjcsNjYuNDU4NSAiIGZpbGw9Im5vbmUiIGlkPSJDb250YWN0LXRvLVJlcGx5SW1wcm92ZW1lbnQiIHN0eWxlPSJzdHJva2U6IzE4MTgxODtzdHJva2Utd2lkdGg6MS4wOyIvPjxwb2x5Z29uIGZpbGw9IiMxODE4MTgiIHBvaW50cz0iMTM0Ljc0LDY0Ljc5LDEyNC45ODI3LDYzLjQ1MDUsMTI5LjkzNzIsNjYuMTgwNCwxMjcuMjA3Myw3MS4xMzUsMTM0Ljc0LDY0Ljc5IiBzdHlsZT0ic3Ryb2tlOiMxODE4MTg7c3Ryb2tlLXdpZHRoOjEuMDsiLz48L2c+PCEtLWxpbmsgQWRtaW4gdG8gVmlld1JlcGx5LS0+PGcgaWQ9ImxpbmtfQWRtaW5fVmlld1JlcGx5Ij48cGF0aCBkPSJNNDguMiwzNTMuNDQgQzY4LjQsMzU3Ljg5IDk0LjUxMDIsMzYzLjY0MDcgMTIyLjE5MDIsMzY5LjczMDcgIiBmaWxsPSJub25lIiBpZD0iQWRtaW4tdG8tVmlld1JlcGx5IiBzdHlsZT0ic3Ryb2tlOiMxODE4MTg7c3Ryb2tlLXdpZHRoOjEuMDsiLz48cG9seWdvbiBmaWxsPSIjMTgxODE4IiBwb2ludHM9IjEyOC4wNSwzNzEuMDIsMTIwLjExOTcsMzY1LjE3OTYsMTIzLjE2NjgsMzY5Ljk0NTYsMTE4LjQwMDcsMzcyLjk5MjcsMTI4LjA1LDM3MS4wMiIgc3R5bGU9InN0cm9rZTojMTgxODE4O3N0cm9rZS13aWR0aDoxLjA7Ii8+PC9nPjwhLS1saW5rIEFkbWluIHRvIE1vZGlmeUltcHJvdmVtZW50U3RhdHVzLS0+PGcgaWQ9ImxpbmtfQWRtaW5fTW9kaWZ5SW1wcm92ZW1lbnRTdGF0dXMiPjxwYXRoIGQ9Ik00OC4yLDM0NC41NiBDNzAuNDUsMzM5LjY2IDEwMS4wOTk5LDMzMi45MDgzIDEzMC40Mzk5LDMyNi40NTgzICIgZmlsbD0ibm9uZSIgaWQ9IkFkbWluLXRvLU1vZGlmeUltcHJvdmVtZW50U3RhdHVzIiBzdHlsZT0ic3Ryb2tlOiMxODE4MTg7c3Ryb2tlLXdpZHRoOjEuMDsiLz48cG9seWdvbiBmaWxsPSIjMTgxODE4IiBwb2ludHM9IjEzNi4zLDMyNS4xNywxMjYuNjUxMSwzMjMuMTk1NywxMzEuNDE2NiwzMjYuMjQzNSwxMjguMzY4NywzMzEuMDA5MSwxMzYuMywzMjUuMTciIHN0eWxlPSJzdHJva2U6IzE4MTgxODtzdHJva2Utd2lkdGg6MS4wOyIvPjwvZz48IS0tU1JDPVtUUDdESWlEMDU4TnR5bkpwMGRxNW1OR2J3NFIxX1AzU25nNkpKOWJDYjI5MmluNmZyMS1lODVnS1dkTFBEbzlRNXRzUFA2QlZtYWFkc2xvcWl4cGRWRlVVVXVUMUlzQjlpUTNrYVNHRTVNMUJvZHM0V1pSckVxR0czbkRSU2U1RjRUUkY4ZFJSNUpwcWRJUGRraGdST0hPQm1RWFNFMjJDT1o1akhNUzg2Vm1kNmdSVmV0V3Ntb0owSlV2Qk5Td2JUM2ZFUnl3SnNfakNzZE95Z2dUZENPWmxDYlkxb1ZMV3lOZUhWcndma3RTcl9DZTNYRzdPOTAyaWRZVmZ3N0JIVXIzeklKbVZnLVdqd3RQOHVTR0E2R0VmY3N3bzl1ekZvU2tXM0VyM1h0TEJYNzVMMW9uelFvU09seWJReVV6dTdTNkZtR0RWaFdiYmFCSl9lTmhITnZtMlNJMjkzOENJNXktZGNnWG9Vem9YaE13VHI1LUl0bnl0NmJsYjRuTTV5Y2ZMZkR3dG5YUk5IQ2pfX1FWRFVMVXIzTGJfMEcwMF0tLT48L2c+PC9zdmc+;" vertex="1" parent="1">
            <mxGeometry x="580" y="-820" width="281" height="423" as="geometry" />
          </mxCell>
        </UserObject>
        <UserObject label="" plantUmlData="{&quot;data&quot;:&quot;@startuml\n\nleft to right direction\n\nskinparam actor {\n    BackgroundColor LightBlue\n    BorderColor Black\n}\n\nactor 管理员 as Admin\n\nrectangle 汇总与统计功能 {\n    usecase 通报清单查看 as ViewBulletinList\n    usecase 通报统计 as BulletinStatistics\n}\n\nAdmin --&gt; ViewBulletinList\nAdmin --&gt; BulletinStatistics\n\n@enduml\n&quot;,&quot;format&quot;:&quot;svg&quot;}" id="mTEwnksnYja1e8k4IuZL-7">
          <mxCell style="shape=image;noLabel=1;verticalAlign=top;aspect=fixed;imageAspect=0;image=data:image/svg+xml,PD94bWwgdmVyc2lvbj0iMS4wIiBlbmNvZGluZz0idXMtYXNjaWkiIHN0YW5kYWxvbmU9Im5vIj8+PHN2ZyB4bWxucz0iaHR0cDovL3d3dy53My5vcmcvMjAwMC9zdmciIHhtbG5zOnhsaW5rPSJodHRwOi8vd3d3LnczLm9yZy8xOTk5L3hsaW5rIiBjb250ZW50U3R5bGVUeXBlPSJ0ZXh0L2NzcyIgaGVpZ2h0PSIxNTVweCIgcHJlc2VydmVBc3BlY3RSYXRpbz0ibm9uZSIgc3R5bGU9IndpZHRoOjI1OHB4O2hlaWdodDoxNTVweDtiYWNrZ3JvdW5kOiNGRkZGRkY7IiB2ZXJzaW9uPSIxLjEiIHZpZXdCb3g9IjAgMCAyNTggMTU1IiB3aWR0aD0iMjU4cHgiIHpvb21BbmRQYW49Im1hZ25pZnkiPjxkZWZzLz48Zz48IS0tY2x1c3RlciA/Pz8/Pz8/LS0+PGcgaWQ9ImNsdXN0ZXJfJiMyNzcxOTsmIzI0NjM1OyYjMTk5ODI7JiMzMjQ3OTsmIzM1NzQ1OyYjMjExNTE7JiMzMzAyMTsiPjxyZWN0IGZpbGw9Im5vbmUiIGhlaWdodD0iMTQyIiByeD0iMi41IiByeT0iMi41IiBzdHlsZT0ic3Ryb2tlOiMxODE4MTg7c3Ryb2tlLXdpZHRoOjEuMDsiIHdpZHRoPSIxNjAiIHg9IjkyIiB5PSI3Ii8+PHRleHQgZmlsbD0iIzAwMDAwMCIgZm9udC1mYW1pbHk9InNhbnMtc2VyaWYiIGZvbnQtc2l6ZT0iMTQiIGZvbnQtd2VpZ2h0PSJib2xkIiBsZW5ndGhBZGp1c3Q9InNwYWNpbmciIHRleHRMZW5ndGg9Ijk4IiB4PSIxMjMiIHk9IjIyLjIzNDQiPiYjMjc3MTk7JiMyNDYzNTsmIzE5OTgyOyYjMzI0Nzk7JiMzNTc0NTsmIzIxMTUxOyYjMzMwMjE7PC90ZXh0PjwvZz48ZyBpZD0iZWxlbV9WaWV3QnVsbGV0aW5MaXN0Ij48ZWxsaXBzZSBjeD0iMTcxLjg4NzgiIGN5PSI1NS4xNzc2IiBmaWxsPSIjRjFGMUYxIiByeD0iNjMuODg3OCIgcnk9IjE1LjE3NzYiIHN0eWxlPSJzdHJva2U6IzE4MTgxODtzdHJva2Utd2lkdGg6MC41OyIvPjx0ZXh0IGZpbGw9IiMwMDAwMDAiIGZvbnQtZmFtaWx5PSJzYW5zLXNlcmlmIiBmb250LXNpemU9IjE0IiBsZW5ndGhBZGp1c3Q9InNwYWNpbmciIHRleHRMZW5ndGg9Ijg0IiB4PSIxMjkuODg3OCIgeT0iNTguOTE5NyI+JiMzNjg5MDsmIzI1MjUzOyYjMjgxNjU7JiMyMTMzMzsmIzI2NTk3OyYjMzA0NzU7PC90ZXh0PjwvZz48ZyBpZD0iZWxlbV9CdWxsZXRpblN0YXRpc3RpY3MiPjxlbGxpcHNlIGN4PSIxNzIuMDgzMyIgY3k9IjExOS4wOTU2IiBmaWxsPSIjRjFGMUYxIiByeD0iNTEuMDgzMyIgcnk9IjEzLjU5NTYiIHN0eWxlPSJzdHJva2U6IzE4MTgxODtzdHJva2Utd2lkdGg6MC41OyIvPjx0ZXh0IGZpbGw9IiMwMDAwMDAiIGZvbnQtZmFtaWx5PSJzYW5zLXNlcmlmIiBmb250LXNpemU9IjE0IiBsZW5ndGhBZGp1c3Q9InNwYWNpbmciIHRleHRMZW5ndGg9IjU2IiB4PSIxNDQuMDgzMyIgeT0iMTIyLjgzNzciPiYjMzY4OTA7JiMyNTI1MzsmIzMyNDc5OyYjMzU3NDU7PC90ZXh0PjwvZz48IS0tZW50aXR5IEFkbWluLS0+PGcgaWQ9ImVsZW1fQWRtaW4iPjxlbGxpcHNlIGN4PSIyNyIgY3k9IjU4IiBmaWxsPSIjQUREOEU2IiByeD0iOCIgcnk9IjgiIHN0eWxlPSJzdHJva2U6IzAwMDAwMDtzdHJva2Utd2lkdGg6MC41OyIvPjxwYXRoIGQ9Ik0yNyw2NiBMMjcsOTMgTTE0LDc0IEw0MCw3NCBNMjcsOTMgTDE0LDEwOCBNMjcsOTMgTDQwLDEwOCAiIGZpbGw9Im5vbmUiIHN0eWxlPSJzdHJva2U6IzAwMDAwMDtzdHJva2Utd2lkdGg6MC41OyIvPjx0ZXh0IGZpbGw9IiMwMDAwMDAiIGZvbnQtZmFtaWx5PSJzYW5zLXNlcmlmIiBmb250LXNpemU9IjE0IiBsZW5ndGhBZGp1c3Q9InNwYWNpbmciIHRleHRMZW5ndGg9IjQyIiB4PSI2IiB5PSIxMjIuNzM0NCI+JiMzMTY0OTsmIzI5NzAyOyYjMjE1OTI7PC90ZXh0PjwvZz48IS0tbGluayBBZG1pbiB0byBWaWV3QnVsbGV0aW5MaXN0LS0+PGcgaWQ9ImxpbmtfQWRtaW5fVmlld0J1bGxldGluTGlzdCI+PHBhdGggZD0iTTQ4LjE5LDgyLjQ4IEM2OC4wNSw3OC4wNCA5My4yMjQ1LDcyLjM5OSAxMTkuMTI0NSw2Ni42MDkgIiBmaWxsPSJub25lIiBpZD0iQWRtaW4tdG8tVmlld0J1bGxldGluTGlzdCIgc3R5bGU9InN0cm9rZTojMTgxODE4O3N0cm9rZS13aWR0aDoxLjA7Ii8+PHBvbHlnb24gZmlsbD0iIzE4MTgxOCIgcG9pbnRzPSIxMjQuOTgsNjUuMywxMTUuMzI0MSw2My4zNTk5LDEyMC4xMDA0LDY2LjM5MDgsMTE3LjA2OTUsNzEuMTY3MSwxMjQuOTgsNjUuMyIgc3R5bGU9InN0cm9rZTojMTgxODE4O3N0cm9rZS13aWR0aDoxLjA7Ii8+PC9nPjwhLS1saW5rIEFkbWluIHRvIEJ1bGxldGluU3RhdGlzdGljcy0tPjxnIGlkPSJsaW5rX0FkbWluX0J1bGxldGluU3RhdGlzdGljcyI+PHBhdGggZD0iTTQ4LjE5LDkxLjUyIEM3MC4wNSw5Ni40MSA5OS41OTQ3LDEwMy4wMjAyIDEyNi43NzQ3LDEwOS4xMDAyICIgZmlsbD0ibm9uZSIgaWQ9IkFkbWluLXRvLUJ1bGxldGluU3RhdGlzdGljcyIgc3R5bGU9InN0cm9rZTojMTgxODE4O3N0cm9rZS13aWR0aDoxLjA7Ii8+PHBvbHlnb24gZmlsbD0iIzE4MTgxOCIgcG9pbnRzPSIxMzIuNjMsMTEwLjQxLDEyNC43MjAzLDEwNC41NDE4LDEyNy43NTA2LDEwOS4zMTg1LDEyMi45NzM5LDExMi4zNDg4LDEzMi42MywxMTAuNDEiIHN0eWxlPSJzdHJva2U6IzE4MTgxODtzdHJva2Utd2lkdGg6MS4wOyIvPjwvZz48IS0tU1JDPVtST3hGUVc4bjRDUmxVT2Z2MEwtWHU3aHJMa1d6UENWak80bWFjU0wzQUdZYkJMV2dVWDJBMjhpN2hxOWxXbEhqa2JiellvUlRiWHhpN0VWeFZOeXEzWFpPV2dGWWJZNGRYdWg5Nlk3eWFDbk9FWmEyZ1RXd2sxQ0dCdkRnTTNYUmNobmRUVnBzYW90SjlSUWdUSmN3TGlicUhDTXo0QXN6c00tUm5MRXpWMEZmZVBrRkE1UWFCY2FBWkgzVWR5RnEtN2NPRHlWZ2pEX01pLWhxeUY1Sk1OZktxWUVTZi1pbXN1TjNPX3N3MmpNa3NSb2FnMWwySUxQZ1pLb2NKdnhfaVJJUDJWdTVocmJvUDRkdkRGMXgzTkd3THZUWFZ6QWJ6R2kwXS0tPjwvZz48L3N2Zz4=;" vertex="1" parent="1">
            <mxGeometry x="322" y="-960" width="258" height="155" as="geometry" />
          </mxCell>
        </UserObject>
        <UserObject label="" plantUmlData="{&#xa;  &quot;data&quot;: &quot;@startuml\n\n|系统管理员|\nstart\n:选择一个或多个二级单位;\n:编写通报内容并发送;\n|系统管理员| \n:通报发送;\n|二级单位联络人|\n:收到通报;\n:查看通报的详细内容;\n|二级单位联络人|\n:通报接收与查看;\n|二级单位联络人|\n:针对通报内容回复整改情况;\n|系统管理员|\n:跟踪整改进度;\n|系统管理员|\nstop\n\n@enduml\n&quot;,&#xa;  &quot;format&quot;: &quot;svg&quot;&#xa;}" id="mTEwnksnYja1e8k4IuZL-8">
          <mxCell style="shape=image;noLabel=1;verticalAlign=top;aspect=fixed;imageAspect=0;image=data:image/svg+xml,PD94bWwgdmVyc2lvbj0iMS4wIiBlbmNvZGluZz0idXMtYXNjaWkiIHN0YW5kYWxvbmU9Im5vIj8+PHN2ZyB4bWxucz0iaHR0cDovL3d3dy53My5vcmcvMjAwMC9zdmciIHhtbG5zOnhsaW5rPSJodHRwOi8vd3d3LnczLm9yZy8xOTk5L3hsaW5rIiBjb250ZW50U3R5bGVUeXBlPSJ0ZXh0L2NzcyIgaGVpZ2h0PSI1MzJweCIgcHJlc2VydmVBc3BlY3RSYXRpbz0ibm9uZSIgc3R5bGU9IndpZHRoOjM3MnB4O2hlaWdodDo1MzJweDtiYWNrZ3JvdW5kOiNGRkZGRkY7IiB2ZXJzaW9uPSIxLjEiIHZpZXdCb3g9IjAgMCAzNzIgNTMyIiB3aWR0aD0iMzcycHgiIHpvb21BbmRQYW49Im1hZ25pZnkiPjxkZWZzLz48Zz48cmVjdCBmaWxsPSJub25lIiBoZWlnaHQ9IjE5LjI2NTYiIHN0eWxlPSJzdHJva2U6bm9uZTtzdHJva2Utd2lkdGg6MS4wOyIgd2lkdGg9IjMzOS41IiB4PSIxNSIgeT0iMTEiLz48ZWxsaXBzZSBjeD0iOTciIGN5PSI0NS4yNjU2IiBmaWxsPSIjMjIyMjIyIiByeD0iMTAiIHJ5PSIxMCIgc3R5bGU9InN0cm9rZTojMjIyMjIyO3N0cm9rZS13aWR0aDoxLjA7Ii8+PHJlY3QgZmlsbD0iI0YxRjFGMSIgaGVpZ2h0PSIzMi44NDM4IiByeD0iMTIuNSIgcnk9IjEyLjUiIHN0eWxlPSJzdHJva2U6IzE4MTgxODtzdHJva2Utd2lkdGg6MC41OyIgd2lkdGg9IjE1MiIgeD0iMjEiIHk9Ijc1LjI2NTYiLz48dGV4dCBmaWxsPSIjMDAwMDAwIiBmb250LWZhbWlseT0ic2Fucy1zZXJpZiIgZm9udC1zaXplPSIxMiIgbGVuZ3RoQWRqdXN0PSJzcGFjaW5nIiB0ZXh0TGVuZ3RoPSIxMzIiIHg9IjMxIiB5PSI5Ni42MDk0Ij4mIzM2ODczOyYjMjUzMjE7JiMxOTk2ODsmIzIwMDEwOyYjMjUxMTA7JiMyMjgxMDsmIzIwMDEwOyYjMjAxMDg7JiMzMjQyMzsmIzIxMzMzOyYjMjAzMDE7PC90ZXh0PjxyZWN0IGZpbGw9IiNGMUYxRjEiIGhlaWdodD0iMzIuODQzOCIgcng9IjEyLjUiIHJ5PSIxMi41IiBzdHlsZT0ic3Ryb2tlOiMxODE4MTg7c3Ryb2tlLXdpZHRoOjAuNTsiIHdpZHRoPSIxMjgiIHg9IjMzIiB5PSIxMjguMTA5NCIvPjx0ZXh0IGZpbGw9IiMwMDAwMDAiIGZvbnQtZmFtaWx5PSJzYW5zLXNlcmlmIiBmb250LXNpemU9IjEyIiBsZW5ndGhBZGp1c3Q9InNwYWNpbmciIHRleHRMZW5ndGg9IjEwOCIgeD0iNDMiIHk9IjE0OS40NTMxIj4mIzMyNTM0OyYjMjA4ODk7JiMzNjg5MDsmIzI1MjUzOyYjMjA4Njk7JiMyMzQ4MTsmIzI0MTgyOyYjMjE0NTc7JiMzNjg2NTs8L3RleHQ+PHJlY3QgZmlsbD0iI0YxRjFGMSIgaGVpZ2h0PSIzMi44NDM4IiByeD0iMTIuNSIgcnk9IjEyLjUiIHN0eWxlPSJzdHJva2U6IzE4MTgxODtzdHJva2Utd2lkdGg6MC41OyIgd2lkdGg9IjY4IiB4PSI2MyIgeT0iMTgwLjk1MzEiLz48dGV4dCBmaWxsPSIjMDAwMDAwIiBmb250LWZhbWlseT0ic2Fucy1zZXJpZiIgZm9udC1zaXplPSIxMiIgbGVuZ3RoQWRqdXN0PSJzcGFjaW5nIiB0ZXh0TGVuZ3RoPSI0OCIgeD0iNzMiIHk9IjIwMi4yOTY5Ij4mIzM2ODkwOyYjMjUyNTM7JiMyMTQ1NzsmIzM2ODY1OzwvdGV4dD48cmVjdCBmaWxsPSIjRjFGMUYxIiBoZWlnaHQ9IjMyLjg0MzgiIHJ4PSIxMi41IiByeT0iMTIuNSIgc3R5bGU9InN0cm9rZTojMTgxODE4O3N0cm9rZS13aWR0aDowLjU7IiB3aWR0aD0iOTIiIHg9IjUxIiB5PSI0NDUuMTcxOSIvPjx0ZXh0IGZpbGw9IiMwMDAwMDAiIGZvbnQtZmFtaWx5PSJzYW5zLXNlcmlmIiBmb250LXNpemU9IjEyIiBsZW5ndGhBZGp1c3Q9InNwYWNpbmciIHRleHRMZW5ndGg9IjcyIiB4PSI2MSIgeT0iNDY2LjUxNTYiPiYjMzYzMTk7JiMzNjM5NDsmIzI1OTcyOyYjMjU5MTM7JiMzNjgyNzsmIzI0MjMwOzwvdGV4dD48ZWxsaXBzZSBjeD0iOTciIGN5PSI1MDkuMDE1NiIgZmlsbD0ibm9uZSIgcng9IjExIiByeT0iMTEiIHN0eWxlPSJzdHJva2U6IzIyMjIyMjtzdHJva2Utd2lkdGg6MS4wOyIvPjxlbGxpcHNlIGN4PSI5NyIgY3k9IjUwOS4wMTU2IiBmaWxsPSIjMjIyMjIyIiByeD0iNiIgcnk9IjYiIHN0eWxlPSJzdHJva2U6IzIyMjIyMjtzdHJva2Utd2lkdGg6MS4wOyIvPjxsaW5lIHN0eWxlPSJzdHJva2U6IzAwMDAwMDtzdHJva2Utd2lkdGg6MS41OyIgeDE9IjE1IiB4Mj0iMTUiIHkxPSIxMSIgeTI9IjUyMC4wMTU2Ii8+PHJlY3QgZmlsbD0iI0YxRjFGMSIgaGVpZ2h0PSIzMi44NDM4IiByeD0iMTIuNSIgcnk9IjEyLjUiIHN0eWxlPSJzdHJva2U6IzE4MTgxODtzdHJva2Utd2lkdGg6MC41OyIgd2lkdGg9IjY4IiB4PSIyMzEiIHk9IjIzMy43OTY5Ii8+PHRleHQgZmlsbD0iIzAwMDAwMCIgZm9udC1mYW1pbHk9InNhbnMtc2VyaWYiIGZvbnQtc2l6ZT0iMTIiIGxlbmd0aEFkanVzdD0ic3BhY2luZyIgdGV4dExlbmd0aD0iNDgiIHg9IjI0MSIgeT0iMjU1LjE0MDYiPiYjMjU5MTA7JiMyMTA0MDsmIzM2ODkwOyYjMjUyNTM7PC90ZXh0PjxyZWN0IGZpbGw9IiNGMUYxRjEiIGhlaWdodD0iMzIuODQzOCIgcng9IjEyLjUiIHJ5PSIxMi41IiBzdHlsZT0ic3Ryb2tlOiMxODE4MTg7c3Ryb2tlLXdpZHRoOjAuNTsiIHdpZHRoPSIxMjgiIHg9IjIwMSIgeT0iMjg2LjY0MDYiLz48dGV4dCBmaWxsPSIjMDAwMDAwIiBmb250LWZhbWlseT0ic2Fucy1zZXJpZiIgZm9udC1zaXplPSIxMiIgbGVuZ3RoQWRqdXN0PSJzcGFjaW5nIiB0ZXh0TGVuZ3RoPSIxMDgiIHg9IjIxMSIgeT0iMzA3Ljk4NDQiPiYjMjY1OTc7JiMzMDQ3NTsmIzM2ODkwOyYjMjUyNTM7JiMzMDM0MDsmIzM1ODE0OyYjMzI0NTQ7JiMyMDg2OTsmIzIzNDgxOzwvdGV4dD48cmVjdCBmaWxsPSIjRjFGMUYxIiBoZWlnaHQ9IjMyLjg0MzgiIHJ4PSIxMi41IiByeT0iMTIuNSIgc3R5bGU9InN0cm9rZTojMTgxODE4O3N0cm9rZS13aWR0aDowLjU7IiB3aWR0aD0iMTA0IiB4PSIyMTMiIHk9IjMzOS40ODQ0Ii8+PHRleHQgZmlsbD0iIzAwMDAwMCIgZm9udC1mYW1pbHk9InNhbnMtc2VyaWYiIGZvbnQtc2l6ZT0iMTIiIGxlbmd0aEFkanVzdD0ic3BhY2luZyIgdGV4dExlbmd0aD0iODQiIHg9IjIyMyIgeT0iMzYwLjgyODEiPiYjMzY4OTA7JiMyNTI1MzsmIzI1NTA5OyYjMjU5MTA7JiMxOTk4MjsmIzI2NTk3OyYjMzA0NzU7PC90ZXh0PjxyZWN0IGZpbGw9IiNGMUYxRjEiIGhlaWdodD0iMzIuODQzOCIgcng9IjEyLjUiIHJ5PSIxMi41IiBzdHlsZT0ic3Ryb2tlOiMxODE4MTg7c3Ryb2tlLXdpZHRoOjAuNTsiIHdpZHRoPSIxNjQiIHg9IjE4MyIgeT0iMzkyLjMyODEiLz48dGV4dCBmaWxsPSIjMDAwMDAwIiBmb250LWZhbWlseT0ic2Fucy1zZXJpZiIgZm9udC1zaXplPSIxMiIgbGVuZ3RoQWRqdXN0PSJzcGFjaW5nIiB0ZXh0TGVuZ3RoPSIxNDQiIHg9IjE5MyIgeT0iNDEzLjY3MTkiPiYjMzgwMjQ7JiMyMzU0NTsmIzM2ODkwOyYjMjUyNTM7JiMyMDg2OTsmIzIzNDgxOyYjMjIyMzg7JiMyMjc5NzsmIzI1OTcyOyYjMjU5MTM7JiMyNDc3MzsmIzIwOTE3OzwvdGV4dD48bGluZSBzdHlsZT0ic3Ryb2tlOiMwMDAwMDA7c3Ryb2tlLXdpZHRoOjEuNTsiIHgxPSIxNzciIHgyPSIxNzciIHkxPSIxMSIgeTI9IjUyMC4wMTU2Ii8+PGxpbmUgc3R5bGU9InN0cm9rZTojMDAwMDAwO3N0cm9rZS13aWR0aDoxLjU7IiB4MT0iMzUxIiB4Mj0iMzUxIiB5MT0iMTEiIHkyPSI1MjAuMDE1NiIvPjxsaW5lIHN0eWxlPSJzdHJva2U6IzE4MTgxODtzdHJva2Utd2lkdGg6MS4wOyIgeDE9Ijk3IiB4Mj0iOTciIHkxPSI1NS4yNjU2IiB5Mj0iNzUuMjY1NiIvPjxwb2x5Z29uIGZpbGw9IiMxODE4MTgiIHBvaW50cz0iOTMsNjUuMjY1Niw5Nyw3NS4yNjU2LDEwMSw2NS4yNjU2LDk3LDY5LjI2NTYiIHN0eWxlPSJzdHJva2U6IzE4MTgxODtzdHJva2Utd2lkdGg6MS4wOyIvPjxsaW5lIHN0eWxlPSJzdHJva2U6IzE4MTgxODtzdHJva2Utd2lkdGg6MS4wOyIgeDE9Ijk3IiB4Mj0iOTciIHkxPSIxMDguMTA5NCIgeTI9IjEyOC4xMDk0Ii8+PHBvbHlnb24gZmlsbD0iIzE4MTgxOCIgcG9pbnRzPSI5MywxMTguMTA5NCw5NywxMjguMTA5NCwxMDEsMTE4LjEwOTQsOTcsMTIyLjEwOTQiIHN0eWxlPSJzdHJva2U6IzE4MTgxODtzdHJva2Utd2lkdGg6MS4wOyIvPjxsaW5lIHN0eWxlPSJzdHJva2U6IzE4MTgxODtzdHJva2Utd2lkdGg6MS4wOyIgeDE9Ijk3IiB4Mj0iOTciIHkxPSIxNjAuOTUzMSIgeTI9IjE4MC45NTMxIi8+PHBvbHlnb24gZmlsbD0iIzE4MTgxOCIgcG9pbnRzPSI5MywxNzAuOTUzMSw5NywxODAuOTUzMSwxMDEsMTcwLjk1MzEsOTcsMTc0Ljk1MzEiIHN0eWxlPSJzdHJva2U6IzE4MTgxODtzdHJva2Utd2lkdGg6MS4wOyIvPjxsaW5lIHN0eWxlPSJzdHJva2U6IzE4MTgxODtzdHJva2Utd2lkdGg6MS4wOyIgeDE9Ijk3IiB4Mj0iOTciIHkxPSI0NzguMDE1NiIgeTI9IjQ5OC4wMTU2Ii8+PHBvbHlnb24gZmlsbD0iIzE4MTgxOCIgcG9pbnRzPSI5Myw0ODguMDE1Niw5Nyw0OTguMDE1NiwxMDEsNDg4LjAxNTYsOTcsNDkyLjAxNTYiIHN0eWxlPSJzdHJva2U6IzE4MTgxODtzdHJva2Utd2lkdGg6MS4wOyIvPjxsaW5lIHN0eWxlPSJzdHJva2U6IzE4MTgxODtzdHJva2Utd2lkdGg6MS4wOyIgeDE9IjI2NSIgeDI9IjI2NSIgeTE9IjI2Ni42NDA2IiB5Mj0iMjg2LjY0MDYiLz48cG9seWdvbiBmaWxsPSIjMTgxODE4IiBwb2ludHM9IjI2MSwyNzYuNjQwNiwyNjUsMjg2LjY0MDYsMjY5LDI3Ni42NDA2LDI2NSwyODAuNjQwNiIgc3R5bGU9InN0cm9rZTojMTgxODE4O3N0cm9rZS13aWR0aDoxLjA7Ii8+PGxpbmUgc3R5bGU9InN0cm9rZTojMTgxODE4O3N0cm9rZS13aWR0aDoxLjA7IiB4MT0iMjY1IiB4Mj0iMjY1IiB5MT0iMzE5LjQ4NDQiIHkyPSIzMzkuNDg0NCIvPjxwb2x5Z29uIGZpbGw9IiMxODE4MTgiIHBvaW50cz0iMjYxLDMyOS40ODQ0LDI2NSwzMzkuNDg0NCwyNjksMzI5LjQ4NDQsMjY1LDMzMy40ODQ0IiBzdHlsZT0ic3Ryb2tlOiMxODE4MTg7c3Ryb2tlLXdpZHRoOjEuMDsiLz48bGluZSBzdHlsZT0ic3Ryb2tlOiMxODE4MTg7c3Ryb2tlLXdpZHRoOjEuMDsiIHgxPSIyNjUiIHgyPSIyNjUiIHkxPSIzNzIuMzI4MSIgeTI9IjM5Mi4zMjgxIi8+PHBvbHlnb24gZmlsbD0iIzE4MTgxOCIgcG9pbnRzPSIyNjEsMzgyLjMyODEsMjY1LDM5Mi4zMjgxLDI2OSwzODIuMzI4MSwyNjUsMzg2LjMyODEiIHN0eWxlPSJzdHJva2U6IzE4MTgxODtzdHJva2Utd2lkdGg6MS4wOyIvPjxsaW5lIHN0eWxlPSJzdHJva2U6IzE4MTgxODtzdHJva2Utd2lkdGg6MS4wOyIgeDE9Ijk3IiB4Mj0iOTciIHkxPSIyMTMuNzk2OSIgeTI9IjIxOC43OTY5Ii8+PGxpbmUgc3R5bGU9InN0cm9rZTojMTgxODE4O3N0cm9rZS13aWR0aDoxLjA7IiB4MT0iOTciIHgyPSIyNjUiIHkxPSIyMTguNzk2OSIgeTI9IjIxOC43OTY5Ii8+PGxpbmUgc3R5bGU9InN0cm9rZTojMTgxODE4O3N0cm9rZS13aWR0aDoxLjA7IiB4MT0iMjY1IiB4Mj0iMjY1IiB5MT0iMjE4Ljc5NjkiIHkyPSIyMzMuNzk2OSIvPjxwb2x5Z29uIGZpbGw9IiMxODE4MTgiIHBvaW50cz0iMjYxLDIyMy43OTY5LDI2NSwyMzMuNzk2OSwyNjksMjIzLjc5NjksMjY1LDIyNy43OTY5IiBzdHlsZT0ic3Ryb2tlOiMxODE4MTg7c3Ryb2tlLXdpZHRoOjEuMDsiLz48bGluZSBzdHlsZT0ic3Ryb2tlOiMxODE4MTg7c3Ryb2tlLXdpZHRoOjEuMDsiIHgxPSIyNjUiIHgyPSIyNjUiIHkxPSI0MjUuMTcxOSIgeTI9IjQzMC4xNzE5Ii8+PGxpbmUgc3R5bGU9InN0cm9rZTojMTgxODE4O3N0cm9rZS13aWR0aDoxLjA7IiB4MT0iMjY1IiB4Mj0iOTciIHkxPSI0MzAuMTcxOSIgeTI9IjQzMC4xNzE5Ii8+PGxpbmUgc3R5bGU9InN0cm9rZTojMTgxODE4O3N0cm9rZS13aWR0aDoxLjA7IiB4MT0iOTciIHgyPSI5NyIgeTE9IjQzMC4xNzE5IiB5Mj0iNDQ1LjE3MTkiLz48cG9seWdvbiBmaWxsPSIjMTgxODE4IiBwb2ludHM9IjkzLDQzNS4xNzE5LDk3LDQ0NS4xNzE5LDEwMSw0MzUuMTcxOSw5Nyw0MzkuMTcxOSIgc3R5bGU9InN0cm9rZTojMTgxODE4O3N0cm9rZS13aWR0aDoxLjA7Ii8+PHRleHQgZmlsbD0iIzAwMDAwMCIgZm9udC1mYW1pbHk9InNhbnMtc2VyaWYiIGZvbnQtc2l6ZT0iMTgiIGxlbmd0aEFkanVzdD0ic3BhY2luZyIgdGV4dExlbmd0aD0iOTAiIHg9IjUxIiB5PSIyOC4wMTU2Ij4mIzMxOTk1OyYjMzI0Nzk7JiMzMTY0OTsmIzI5NzAyOyYjMjE1OTI7PC90ZXh0Pjx0ZXh0IGZpbGw9IiMwMDAwMDAiIGZvbnQtZmFtaWx5PSJzYW5zLXNlcmlmIiBmb250LXNpemU9IjE4IiBsZW5ndGhBZGp1c3Q9InNwYWNpbmciIHRleHRMZW5ndGg9IjEyNiIgeD0iMjAxIiB5PSIyOC4wMTU2Ij4mIzIwMTA4OyYjMzI0MjM7JiMyMTMzMzsmIzIwMzAxOyYjMzI4NTI7JiMzMjQ3NjsmIzIwMTU0OzwvdGV4dD48IS0tU1JDPVtWUDFIUWk5MDU0Tl9Qbk1rOHd4NjVJWVFwdG40Z2FEaVpETUkxMWw1ODlXS19MMlhoSVFKYmN2Y3Rka0pOUFd3MjVSNGx0VlhTMnh0TVZISEsxN0pUYWJaM2ZFZm5KZmNlc3FvZXhHN3dBdmJQaWppV3F1OGd3V3dmMVlJVTBTbGEzelVkSGRxN0c5X0EtcThkbkZXVlRaY2ExX1dQTEJRdEpncFJpc3JGLWFQbEgzTkVqTnJnUFhCOEluY2U3eTBQd19YZ1dSWlhFUWtaWEpycjJ3Yldray0xbkJEdW9ZZlIzOFJRU2FaX2pNMU5WdmxwNm0xQW0tM0pfSHBWRWUzX3hncFlYZGc2QWxnSHNUQ19TdjBmRlVtWmpiaWRHMDBdLS0+PC9nPjwvc3ZnPg==;" vertex="1" parent="1">
            <mxGeometry x="299" y="-490" width="372" height="532" as="geometry" />
          </mxCell>
        </UserObject>
        <UserObject label="" plantUmlData="{&quot;data&quot;:&quot;@startuml\n\npackage \&quot;系统层次\&quot; {\n\n    package \&quot;前端层\&quot; {\n        [Vue.js] as vue\n        [Vite] as vite\n    }\n\n    package \&quot;后端层\&quot; {\n        [Spring Boot] as springboot\n    }\n\n    package \&quot;数据持久层\&quot; {\n        [M ySQL] as mysql\n        [JPA] as jpa\n        [Redis] as redis\n    }\n\n    package \&quot;中间件层\&quot; {\n        [Redis] as redis_mw\n    }\n\n    package \&quot;安全层\&quot; {\n        [Spring Security] as security\n        [JWT] as jwt\n    }\n\n    vue --&gt; vite\n    springboot --&gt; jpa\n    springboot --&gt; security\n    jpa --&gt; mysql\n    jpa --&gt; redis\n    redis_mw --&gt; redis\n    security --&gt; jwt\n\n}\n\n@enduml\n&quot;,&quot;format&quot;:&quot;svg&quot;}" id="mTEwnksnYja1e8k4IuZL-9">
          <mxCell style="shape=image;noLabel=1;verticalAlign=top;aspect=fixed;imageAspect=0;image=data:image/svg+xml,PD94bWwgdmVyc2lvbj0iMS4wIiBlbmNvZGluZz0idXMtYXNjaWkiIHN0YW5kYWxvbmU9Im5vIj8+PHN2ZyB4bWxucz0iaHR0cDovL3d3dy53My5vcmcvMjAwMC9zdmciIHhtbG5zOnhsaW5rPSJodHRwOi8vd3d3LnczLm9yZy8xOTk5L3hsaW5rIiBjb250ZW50U3R5bGVUeXBlPSJ0ZXh0L2NzcyIgaGVpZ2h0PSIzOTVweCIgcHJlc2VydmVBc3BlY3RSYXRpbz0ibm9uZSIgc3R5bGU9IndpZHRoOjc1NXB4O2hlaWdodDozOTVweDtiYWNrZ3JvdW5kOiNGRkZGRkY7IiB2ZXJzaW9uPSIxLjEiIHZpZXdCb3g9IjAgMCA3NTUgMzk1IiB3aWR0aD0iNzU1cHgiIHpvb21BbmRQYW49Im1hZ25pZnkiPjxkZWZzLz48Zz48IS0tY2x1c3RlciA/Pz8/LS0+PGcgaWQ9ImNsdXN0ZXJfJiMzMTk5NTsmIzMyNDc5OyYjMjM2MTg7JiMyNzQyNTsiPjxwYXRoIGQ9Ik04LjUsNiBMNjUuNSw2IEEzLjc1LDMuNzUgMCAwIDEgNjgsOC41IEw3NSwyNi45ODQ0IEw3NDUuNSwyNi45ODQ0IEEyLjUsMi41IDAgMCAxIDc0OCwyOS40ODQ0IEw3NDgsMzg1LjUgQTIuNSwyLjUgMCAwIDEgNzQ1LjUsMzg4IEw4LjUsMzg4IEEyLjUsMi41IDAgMCAxIDYsMzg1LjUgTDYsOC41IEEyLjUsMi41IDAgMCAxIDguNSw2ICIgZmlsbD0ibm9uZSIgc3R5bGU9InN0cm9rZTojMDAwMDAwO3N0cm9rZS13aWR0aDoxLjU7Ii8+PGxpbmUgc3R5bGU9InN0cm9rZTojMDAwMDAwO3N0cm9rZS13aWR0aDoxLjU7IiB4MT0iNiIgeDI9Ijc1IiB5MT0iMjYuOTg0NCIgeTI9IjI2Ljk4NDQiLz48dGV4dCBmaWxsPSIjMDAwMDAwIiBmb250LWZhbWlseT0ic2Fucy1zZXJpZiIgZm9udC1zaXplPSIxNCIgZm9udC13ZWlnaHQ9ImJvbGQiIGxlbmd0aEFkanVzdD0ic3BhY2luZyIgdGV4dExlbmd0aD0iNTYiIHg9IjEwIiB5PSIyMS4yMzQ0Ij4mIzMxOTk1OyYjMzI0Nzk7JiMyMzYxODsmIzI3NDI1OzwvdGV4dD48L2c+PCEtLWNsdXN0ZXIgPz8/LS0+PGcgaWQ9ImNsdXN0ZXJfJiMyMTA2OTsmIzMxNDcxOyYjMjM2MTg7Ij48cGF0aCBkPSJNNjEyLjUsNDcgTDY1NS41LDQ3IEEzLjc1LDMuNzUgMCAwIDEgNjU4LDQ5LjUgTDY2NSw2Ny45ODQ0IEw3MjEuNSw2Ny45ODQ0IEEyLjUsMi41IDAgMCAxIDcyNCw3MC40ODQ0IEw3MjQsMjU2LjUgQTIuNSwyLjUgMCAwIDEgNzIxLjUsMjU5IEw2MTIuNSwyNTkgQTIuNSwyLjUgMCAwIDEgNjEwLDI1Ni41IEw2MTAsNDkuNSBBMi41LDIuNSAwIDAgMSA2MTIuNSw0NyAiIGZpbGw9Im5vbmUiIHN0eWxlPSJzdHJva2U6IzAwMDAwMDtzdHJva2Utd2lkdGg6MS41OyIvPjxsaW5lIHN0eWxlPSJzdHJva2U6IzAwMDAwMDtzdHJva2Utd2lkdGg6MS41OyIgeDE9IjYxMCIgeDI9IjY2NSIgeTE9IjY3Ljk4NDQiIHkyPSI2Ny45ODQ0Ii8+PHRleHQgZmlsbD0iIzAwMDAwMCIgZm9udC1mYW1pbHk9InNhbnMtc2VyaWYiIGZvbnQtc2l6ZT0iMTQiIGZvbnQtd2VpZ2h0PSJib2xkIiBsZW5ndGhBZGp1c3Q9InNwYWNpbmciIHRleHRMZW5ndGg9IjQyIiB4PSI2MTQiIHk9IjYyLjIzNDQiPiYjMjEwNjk7JiMzMTQ3MTsmIzIzNjE4OzwvdGV4dD48L2c+PCEtLWNsdXN0ZXIgPz8/LS0+PGcgaWQ9ImNsdXN0ZXJfJiMyMTUxODsmIzMxNDcxOyYjMjM2MTg7Ij48cGF0aCBkPSJNMzM5LjUsNDcgTDM4Mi41LDQ3IEEzLjc1LDMuNzUgMCAwIDEgMzg1LDQ5LjUgTDM5Miw2Ny45ODQ0IEw0ODQuNSw2Ny45ODQ0IEEyLjUsMi41IDAgMCAxIDQ4Nyw3MC40ODQ0IEw0ODcsMTM4LjUgQTIuNSwyLjUgMCAwIDEgNDg0LjUsMTQxIEwzMzkuNSwxNDEgQTIuNSwyLjUgMCAwIDEgMzM3LDEzOC41IEwzMzcsNDkuNSBBMi41LDIuNSAwIDAgMSAzMzkuNSw0NyAiIGZpbGw9Im5vbmUiIHN0eWxlPSJzdHJva2U6IzAwMDAwMDtzdHJva2Utd2lkdGg6MS41OyIvPjxsaW5lIHN0eWxlPSJzdHJva2U6IzAwMDAwMDtzdHJva2Utd2lkdGg6MS41OyIgeDE9IjMzNyIgeDI9IjM5MiIgeTE9IjY3Ljk4NDQiIHkyPSI2Ny45ODQ0Ii8+PHRleHQgZmlsbD0iIzAwMDAwMCIgZm9udC1mYW1pbHk9InNhbnMtc2VyaWYiIGZvbnQtc2l6ZT0iMTQiIGZvbnQtd2VpZ2h0PSJib2xkIiBsZW5ndGhBZGp1c3Q9InNwYWNpbmciIHRleHRMZW5ndGg9IjQyIiB4PSIzNDEiIHk9IjYyLjIzNDQiPiYjMjE1MTg7JiMzMTQ3MTsmIzIzNjE4OzwvdGV4dD48L2c+PCEtLWNsdXN0ZXIgPz8/Pz8tLT48ZyBpZD0iY2x1c3Rlcl8mIzI1OTY4OyYjMjU0NTQ7JiMyNTM0NTsmIzIwMDM3OyYjMjM2MTg7Ij48cGF0aCBkPSJNMTYyLjUsMTY1IEwyMzMuNSwxNjUgQTMuNzUsMy43NSAwIDAgMSAyMzYsMTY3LjUgTDI0MywxODUuOTg0NCBMMzgxLjUsMTg1Ljk4NDQgQTIuNSwyLjUgMCAwIDEgMzg0LDE4OC40ODQ0IEwzODQsMzYxLjUgQTIuNSwyLjUgMCAwIDEgMzgxLjUsMzY0IEwxNjIuNSwzNjQgQTIuNSwyLjUgMCAwIDEgMTYwLDM2MS41IEwxNjAsMTY3LjUgQTIuNSwyLjUgMCAwIDEgMTYyLjUsMTY1ICIgZmlsbD0ibm9uZSIgc3R5bGU9InN0cm9rZTojMDAwMDAwO3N0cm9rZS13aWR0aDoxLjU7Ii8+PGxpbmUgc3R5bGU9InN0cm9rZTojMDAwMDAwO3N0cm9rZS13aWR0aDoxLjU7IiB4MT0iMTYwIiB4Mj0iMjQzIiB5MT0iMTg1Ljk4NDQiIHkyPSIxODUuOTg0NCIvPjx0ZXh0IGZpbGw9IiMwMDAwMDAiIGZvbnQtZmFtaWx5PSJzYW5zLXNlcmlmIiBmb250LXNpemU9IjE0IiBmb250LXdlaWdodD0iYm9sZCIgbGVuZ3RoQWRqdXN0PSJzcGFjaW5nIiB0ZXh0TGVuZ3RoPSI3MCIgeD0iMTY0IiB5PSIxODAuMjM0NCI+JiMyNTk2ODsmIzI1NDU0OyYjMjUzNDU7JiMyMDAzNzsmIzIzNjE4OzwvdGV4dD48L2c+PCEtLWNsdXN0ZXIgPz8/Py0tPjxnIGlkPSJjbHVzdGVyXyYjMjAwMTM7JiMzODM4ODsmIzIwMjE0OyYjMjM2MTg7Ij48cGF0aCBkPSJNMzIuNSwxNjUgTDg5LjUsMTY1IEEzLjc1LDMuNzUgMCAwIDEgOTIsMTY3LjUgTDk5LDE4NS45ODQ0IEwxMzMuNSwxODUuOTg0NCBBMi41LDIuNSAwIDAgMSAxMzYsMTg4LjQ4NDQgTDEzNiwyNTYuNSBBMi41LDIuNSAwIDAgMSAxMzMuNSwyNTkgTDMyLjUsMjU5IEEyLjUsMi41IDAgMCAxIDMwLDI1Ni41IEwzMCwxNjcuNSBBMi41LDIuNSAwIDAgMSAzMi41LDE2NSAiIGZpbGw9Im5vbmUiIHN0eWxlPSJzdHJva2U6IzAwMDAwMDtzdHJva2Utd2lkdGg6MS41OyIvPjxsaW5lIHN0eWxlPSJzdHJva2U6IzAwMDAwMDtzdHJva2Utd2lkdGg6MS41OyIgeDE9IjMwIiB4Mj0iOTkiIHkxPSIxODUuOTg0NCIgeTI9IjE4NS45ODQ0Ii8+PHRleHQgZmlsbD0iIzAwMDAwMCIgZm9udC1mYW1pbHk9InNhbnMtc2VyaWYiIGZvbnQtc2l6ZT0iMTQiIGZvbnQtd2VpZ2h0PSJib2xkIiBsZW5ndGhBZGp1c3Q9InNwYWNpbmciIHRleHRMZW5ndGg9IjU2IiB4PSIzNCIgeT0iMTgwLjIzNDQiPiYjMjAwMTM7JiMzODM4ODsmIzIwMjE0OyYjMjM2MTg7PC90ZXh0PjwvZz48IS0tY2x1c3RlciA/Pz8tLT48ZyBpZD0iY2x1c3Rlcl8mIzIzNDMzOyYjMjA4NDA7JiMyMzYxODsiPjxwYXRoIGQ9Ik00MTAuNSwxNjUgTDQ1My41LDE2NSBBMy43NSwzLjc1IDAgMCAxIDQ1NiwxNjcuNSBMNDYzLDE4NS45ODQ0IEw1ODMuNSwxODUuOTg0NCBBMi41LDIuNSAwIDAgMSA1ODYsMTg4LjQ4NDQgTDU4NiwzNjEuNSBBMi41LDIuNSAwIDAgMSA1ODMuNSwzNjQgTDQxMC41LDM2NCBBMi41LDIuNSAwIDAgMSA0MDgsMzYxLjUgTDQwOCwxNjcuNSBBMi41LDIuNSAwIDAgMSA0MTAuNSwxNjUgIiBmaWxsPSJub25lIiBzdHlsZT0ic3Ryb2tlOiMwMDAwMDA7c3Ryb2tlLXdpZHRoOjEuNTsiLz48bGluZSBzdHlsZT0ic3Ryb2tlOiMwMDAwMDA7c3Ryb2tlLXdpZHRoOjEuNTsiIHgxPSI0MDgiIHgyPSI0NjMiIHkxPSIxODUuOTg0NCIgeTI9IjE4NS45ODQ0Ii8+PHRleHQgZmlsbD0iIzAwMDAwMCIgZm9udC1mYW1pbHk9InNhbnMtc2VyaWYiIGZvbnQtc2l6ZT0iMTQiIGZvbnQtd2VpZ2h0PSJib2xkIiBsZW5ndGhBZGp1c3Q9InNwYWNpbmciIHRleHRMZW5ndGg9IjQyIiB4PSI0MTIiIHk9IjE4MC4yMzQ0Ij4mIzIzNDMzOyYjMjA4NDA7JiMyMzYxODs8L3RleHQ+PC9nPjwhLS1lbnRpdHkgdnVlLS0+PGcgaWQ9ImVsZW1fdnVlIj48cmVjdCBmaWxsPSIjRjFGMUYxIiBoZWlnaHQ9IjQ0Ljk4NDQiIHJ4PSIyLjUiIHJ5PSIyLjUiIHN0eWxlPSJzdHJva2U6IzE4MTgxODtzdHJva2Utd2lkdGg6MC41OyIgd2lkdGg9IjgyIiB4PSI2MjYiIHk9IjgwIi8+PHJlY3QgZmlsbD0iI0YxRjFGMSIgaGVpZ2h0PSIxMCIgc3R5bGU9InN0cm9rZTojMTgxODE4O3N0cm9rZS13aWR0aDowLjU7IiB3aWR0aD0iMTUiIHg9IjY4OCIgeT0iODUiLz48cmVjdCBmaWxsPSIjRjFGMUYxIiBoZWlnaHQ9IjIiIHN0eWxlPSJzdHJva2U6IzE4MTgxODtzdHJva2Utd2lkdGg6MC41OyIgd2lkdGg9IjQiIHg9IjY4NiIgeT0iODciLz48cmVjdCBmaWxsPSIjRjFGMUYxIiBoZWlnaHQ9IjIiIHN0eWxlPSJzdHJva2U6IzE4MTgxODtzdHJva2Utd2lkdGg6MC41OyIgd2lkdGg9IjQiIHg9IjY4NiIgeT0iOTEiLz48dGV4dCBmaWxsPSIjMDAwMDAwIiBmb250LWZhbWlseT0ic2Fucy1zZXJpZiIgZm9udC1zaXplPSIxNCIgbGVuZ3RoQWRqdXN0PSJzcGFjaW5nIiB0ZXh0TGVuZ3RoPSI0MiIgeD0iNjQxIiB5PSIxMTMuMjM0NCI+VnVlLmpzPC90ZXh0PjwvZz48IS0tZW50aXR5IHZpdGUtLT48ZyBpZD0iZWxlbV92aXRlIj48cmVjdCBmaWxsPSIjRjFGMUYxIiBoZWlnaHQ9IjQ0Ljk4NDQiIHJ4PSIyLjUiIHJ5PSIyLjUiIHN0eWxlPSJzdHJva2U6IzE4MTgxODtzdHJva2Utd2lkdGg6MC41OyIgd2lkdGg9IjY4IiB4PSI2MzMiIHk9IjE5OCIvPjxyZWN0IGZpbGw9IiNGMUYxRjEiIGhlaWdodD0iMTAiIHN0eWxlPSJzdHJva2U6IzE4MTgxODtzdHJva2Utd2lkdGg6MC41OyIgd2lkdGg9IjE1IiB4PSI2ODEiIHk9IjIwMyIvPjxyZWN0IGZpbGw9IiNGMUYxRjEiIGhlaWdodD0iMiIgc3R5bGU9InN0cm9rZTojMTgxODE4O3N0cm9rZS13aWR0aDowLjU7IiB3aWR0aD0iNCIgeD0iNjc5IiB5PSIyMDUiLz48cmVjdCBmaWxsPSIjRjFGMUYxIiBoZWlnaHQ9IjIiIHN0eWxlPSJzdHJva2U6IzE4MTgxODtzdHJva2Utd2lkdGg6MC41OyIgd2lkdGg9IjQiIHg9IjY3OSIgeT0iMjA5Ii8+PHRleHQgZmlsbD0iIzAwMDAwMCIgZm9udC1mYW1pbHk9InNhbnMtc2VyaWYiIGZvbnQtc2l6ZT0iMTQiIGxlbmd0aEFkanVzdD0ic3BhY2luZyIgdGV4dExlbmd0aD0iMjgiIHg9IjY0OCIgeT0iMjMxLjIzNDQiPlZpdGU8L3RleHQ+PC9nPjwhLS1lbnRpdHkgc3ByaW5nYm9vdC0tPjxnIGlkPSJlbGVtX3NwcmluZ2Jvb3QiPjxyZWN0IGZpbGw9IiNGMUYxRjEiIGhlaWdodD0iNDQuOTg0NCIgcng9IjIuNSIgcnk9IjIuNSIgc3R5bGU9InN0cm9rZTojMTgxODE4O3N0cm9rZS13aWR0aDowLjU7IiB3aWR0aD0iMTE3IiB4PSIzNTMuNSIgeT0iODAiLz48cmVjdCBmaWxsPSIjRjFGMUYxIiBoZWlnaHQ9IjEwIiBzdHlsZT0ic3Ryb2tlOiMxODE4MTg7c3Ryb2tlLXdpZHRoOjAuNTsiIHdpZHRoPSIxNSIgeD0iNDUwLjUiIHk9Ijg1Ii8+PHJlY3QgZmlsbD0iI0YxRjFGMSIgaGVpZ2h0PSIyIiBzdHlsZT0ic3Ryb2tlOiMxODE4MTg7c3Ryb2tlLXdpZHRoOjAuNTsiIHdpZHRoPSI0IiB4PSI0NDguNSIgeT0iODciLz48cmVjdCBmaWxsPSIjRjFGMUYxIiBoZWlnaHQ9IjIiIHN0eWxlPSJzdHJva2U6IzE4MTgxODtzdHJva2Utd2lkdGg6MC41OyIgd2lkdGg9IjQiIHg9IjQ0OC41IiB5PSI5MSIvPjx0ZXh0IGZpbGw9IiMwMDAwMDAiIGZvbnQtZmFtaWx5PSJzYW5zLXNlcmlmIiBmb250LXNpemU9IjE0IiBsZW5ndGhBZGp1c3Q9InNwYWNpbmciIHRleHRMZW5ndGg9Ijc3IiB4PSIzNjguNSIgeT0iMTEzLjIzNDQiPlNwcmluZyBCb290PC90ZXh0PjwvZz48IS0tZW50aXR5IG15c3FsLS0+PGcgaWQ9ImVsZW1fbXlzcWwiPjxyZWN0IGZpbGw9IiNGMUYxRjEiIGhlaWdodD0iNDQuOTg0NCIgcng9IjIuNSIgcnk9IjIuNSIgc3R5bGU9InN0cm9rZTojMTgxODE4O3N0cm9rZS13aWR0aDowLjU7IiB3aWR0aD0iODIiIHg9IjI4NiIgeT0iMzAzIi8+PHJlY3QgZmlsbD0iI0YxRjFGMSIgaGVpZ2h0PSIxMCIgc3R5bGU9InN0cm9rZTojMTgxODE4O3N0cm9rZS13aWR0aDowLjU7IiB3aWR0aD0iMTUiIHg9IjM0OCIgeT0iMzA4Ii8+PHJlY3QgZmlsbD0iI0YxRjFGMSIgaGVpZ2h0PSIyIiBzdHlsZT0ic3Ryb2tlOiMxODE4MTg7c3Ryb2tlLXdpZHRoOjAuNTsiIHdpZHRoPSI0IiB4PSIzNDYiIHk9IjMxMCIvPjxyZWN0IGZpbGw9IiNGMUYxRjEiIGhlaWdodD0iMiIgc3R5bGU9InN0cm9rZTojMTgxODE4O3N0cm9rZS13aWR0aDowLjU7IiB3aWR0aD0iNCIgeD0iMzQ2IiB5PSIzMTQiLz48dGV4dCBmaWxsPSIjMDAwMDAwIiBmb250LWZhbWlseT0ic2Fucy1zZXJpZiIgZm9udC1zaXplPSIxNCIgbGVuZ3RoQWRqdXN0PSJzcGFjaW5nIiB0ZXh0TGVuZ3RoPSI0MiIgeD0iMzAxIiB5PSIzMzYuMjM0NCI+TSB5U1FMPC90ZXh0PjwvZz48IS0tZW50aXR5IGpwYS0tPjxnIGlkPSJlbGVtX2pwYSI+PHJlY3QgZmlsbD0iI0YxRjFGMSIgaGVpZ2h0PSI0NC45ODQ0IiByeD0iMi41IiByeT0iMi41IiBzdHlsZT0ic3Ryb2tlOiMxODE4MTg7c3Ryb2tlLXdpZHRoOjAuNTsiIHdpZHRoPSI2MiIgeD0iMjk2IiB5PSIxOTgiLz48cmVjdCBmaWxsPSIjRjFGMUYxIiBoZWlnaHQ9IjEwIiBzdHlsZT0ic3Ryb2tlOiMxODE4MTg7c3Ryb2tlLXdpZHRoOjAuNTsiIHdpZHRoPSIxNSIgeD0iMzM4IiB5PSIyMDMiLz48cmVjdCBmaWxsPSIjRjFGMUYxIiBoZWlnaHQ9IjIiIHN0eWxlPSJzdHJva2U6IzE4MTgxODtzdHJva2Utd2lkdGg6MC41OyIgd2lkdGg9IjQiIHg9IjMzNiIgeT0iMjA1Ii8+PHJlY3QgZmlsbD0iI0YxRjFGMSIgaGVpZ2h0PSIyIiBzdHlsZT0ic3Ryb2tlOiMxODE4MTg7c3Ryb2tlLXdpZHRoOjAuNTsiIHdpZHRoPSI0IiB4PSIzMzYiIHk9IjIwOSIvPjx0ZXh0IGZpbGw9IiMwMDAwMDAiIGZvbnQtZmFtaWx5PSJzYW5zLXNlcmlmIiBmb250LXNpemU9IjE0IiBsZW5ndGhBZGp1c3Q9InNwYWNpbmciIHRleHRMZW5ndGg9IjIyIiB4PSIzMTEiIHk9IjIzMS4yMzQ0Ij5KUEE8L3RleHQ+PC9nPjwhLS1lbnRpdHkgcmVkaXMtLT48ZyBpZD0iZWxlbV9yZWRpcyI+PHJlY3QgZmlsbD0iI0YxRjFGMSIgaGVpZ2h0PSI0NC45ODQ0IiByeD0iMi41IiByeT0iMi41IiBzdHlsZT0ic3Ryb2tlOiMxODE4MTg7c3Ryb2tlLXdpZHRoOjAuNTsiIHdpZHRoPSI3NSIgeD0iMTc1LjUiIHk9IjMwMyIvPjxyZWN0IGZpbGw9IiNGMUYxRjEiIGhlaWdodD0iMTAiIHN0eWxlPSJzdHJva2U6IzE4MTgxODtzdHJva2Utd2lkdGg6MC41OyIgd2lkdGg9IjE1IiB4PSIyMzAuNSIgeT0iMzA4Ii8+PHJlY3QgZmlsbD0iI0YxRjFGMSIgaGVpZ2h0PSIyIiBzdHlsZT0ic3Ryb2tlOiMxODE4MTg7c3Ryb2tlLXdpZHRoOjAuNTsiIHdpZHRoPSI0IiB4PSIyMjguNSIgeT0iMzEwIi8+PHJlY3QgZmlsbD0iI0YxRjFGMSIgaGVpZ2h0PSIyIiBzdHlsZT0ic3Ryb2tlOiMxODE4MTg7c3Ryb2tlLXdpZHRoOjAuNTsiIHdpZHRoPSI0IiB4PSIyMjguNSIgeT0iMzE0Ii8+PHRleHQgZmlsbD0iIzAwMDAwMCIgZm9udC1mYW1pbHk9InNhbnMtc2VyaWYiIGZvbnQtc2l6ZT0iMTQiIGxlbmd0aEFkanVzdD0ic3BhY2luZyIgdGV4dExlbmd0aD0iMzUiIHg9IjE5MC41IiB5PSIzMzYuMjM0NCI+UmVkaXM8L3RleHQ+PC9nPjwhLS1lbnRpdHkgcmVkaXNfbXctLT48ZyBpZD0iZWxlbV9yZWRpc19tdyI+PHJlY3QgZmlsbD0iI0YxRjFGMSIgaGVpZ2h0PSI0NC45ODQ0IiByeD0iMi41IiByeT0iMi41IiBzdHlsZT0ic3Ryb2tlOiMxODE4MTg7c3Ryb2tlLXdpZHRoOjAuNTsiIHdpZHRoPSI3NSIgeD0iNDUuNSIgeT0iMTk4Ii8+PHJlY3QgZmlsbD0iI0YxRjFGMSIgaGVpZ2h0PSIxMCIgc3R5bGU9InN0cm9rZTojMTgxODE4O3N0cm9rZS13aWR0aDowLjU7IiB3aWR0aD0iMTUiIHg9IjEwMC41IiB5PSIyMDMiLz48cmVjdCBmaWxsPSIjRjFGMUYxIiBoZWlnaHQ9IjIiIHN0eWxlPSJzdHJva2U6IzE4MTgxODtzdHJva2Utd2lkdGg6MC41OyIgd2lkdGg9IjQiIHg9Ijk4LjUiIHk9IjIwNSIvPjxyZWN0IGZpbGw9IiNGMUYxRjEiIGhlaWdodD0iMiIgc3R5bGU9InN0cm9rZTojMTgxODE4O3N0cm9rZS13aWR0aDowLjU7IiB3aWR0aD0iNCIgeD0iOTguNSIgeT0iMjA5Ii8+PHRleHQgZmlsbD0iIzAwMDAwMCIgZm9udC1mYW1pbHk9InNhbnMtc2VyaWYiIGZvbnQtc2l6ZT0iMTQiIGxlbmd0aEFkanVzdD0ic3BhY2luZyIgdGV4dExlbmd0aD0iMzUiIHg9IjYwLjUiIHk9IjIzMS4yMzQ0Ij5SZWRpczwvdGV4dD48L2c+PCEtLWVudGl0eSBzZWN1cml0eS0tPjxnIGlkPSJlbGVtX3NlY3VyaXR5Ij48cmVjdCBmaWxsPSIjRjFGMUYxIiBoZWlnaHQ9IjQ0Ljk4NDQiIHJ4PSIyLjUiIHJ5PSIyLjUiIHN0eWxlPSJzdHJva2U6IzE4MTgxODtzdHJva2Utd2lkdGg6MC41OyIgd2lkdGg9IjE0NSIgeD0iNDI0LjUiIHk9IjE5OCIvPjxyZWN0IGZpbGw9IiNGMUYxRjEiIGhlaWdodD0iMTAiIHN0eWxlPSJzdHJva2U6IzE4MTgxODtzdHJva2Utd2lkdGg6MC41OyIgd2lkdGg9IjE1IiB4PSI1NDkuNSIgeT0iMjAzIi8+PHJlY3QgZmlsbD0iI0YxRjFGMSIgaGVpZ2h0PSIyIiBzdHlsZT0ic3Ryb2tlOiMxODE4MTg7c3Ryb2tlLXdpZHRoOjAuNTsiIHdpZHRoPSI0IiB4PSI1NDcuNSIgeT0iMjA1Ii8+PHJlY3QgZmlsbD0iI0YxRjFGMSIgaGVpZ2h0PSIyIiBzdHlsZT0ic3Ryb2tlOiMxODE4MTg7c3Ryb2tlLXdpZHRoOjAuNTsiIHdpZHRoPSI0IiB4PSI1NDcuNSIgeT0iMjA5Ii8+PHRleHQgZmlsbD0iIzAwMDAwMCIgZm9udC1mYW1pbHk9InNhbnMtc2VyaWYiIGZvbnQtc2l6ZT0iMTQiIGxlbmd0aEFkanVzdD0ic3BhY2luZyIgdGV4dExlbmd0aD0iMTA1IiB4PSI0MzkuNSIgeT0iMjMxLjIzNDQiPlNwcmluZyBTZWN1cml0eTwvdGV4dD48L2c+PCEtLWVudGl0eSBqd3QtLT48ZyBpZD0iZWxlbV9qd3QiPjxyZWN0IGZpbGw9IiNGMUYxRjEiIGhlaWdodD0iNDQuOTg0NCIgcng9IjIuNSIgcnk9IjIuNSIgc3R5bGU9InN0cm9rZTojMTgxODE4O3N0cm9rZS13aWR0aDowLjU7IiB3aWR0aD0iNjIiIHg9IjQ2NiIgeT0iMzAzIi8+PHJlY3QgZmlsbD0iI0YxRjFGMSIgaGVpZ2h0PSIxMCIgc3R5bGU9InN0cm9rZTojMTgxODE4O3N0cm9rZS13aWR0aDowLjU7IiB3aWR0aD0iMTUiIHg9IjUwOCIgeT0iMzA4Ii8+PHJlY3QgZmlsbD0iI0YxRjFGMSIgaGVpZ2h0PSIyIiBzdHlsZT0ic3Ryb2tlOiMxODE4MTg7c3Ryb2tlLXdpZHRoOjAuNTsiIHdpZHRoPSI0IiB4PSI1MDYiIHk9IjMxMCIvPjxyZWN0IGZpbGw9IiNGMUYxRjEiIGhlaWdodD0iMiIgc3R5bGU9InN0cm9rZTojMTgxODE4O3N0cm9rZS13aWR0aDowLjU7IiB3aWR0aD0iNCIgeD0iNTA2IiB5PSIzMTQiLz48dGV4dCBmaWxsPSIjMDAwMDAwIiBmb250LWZhbWlseT0ic2Fucy1zZXJpZiIgZm9udC1zaXplPSIxNCIgbGVuZ3RoQWRqdXN0PSJzcGFjaW5nIiB0ZXh0TGVuZ3RoPSIyMiIgeD0iNDgxIiB5PSIzMzYuMjM0NCI+SldUPC90ZXh0PjwvZz48IS0tbGluayB2dWUgdG8gdml0ZS0tPjxnIGlkPSJsaW5rX3Z1ZV92aXRlIj48cGF0aCBkPSJNNjY3LDEyNS4wNSBDNjY3LDE0NS43NSA2NjcsMTcwLjg4IDY2NywxOTEuNjcgIiBmaWxsPSJub25lIiBpZD0idnVlLXRvLXZpdGUiIHN0eWxlPSJzdHJva2U6IzE4MTgxODtzdHJva2Utd2lkdGg6MS4wOyIvPjxwb2x5Z29uIGZpbGw9IiMxODE4MTgiIHBvaW50cz0iNjY3LDE5Ny42Nyw2NzEsMTg4LjY3LDY2NywxOTIuNjcsNjYzLDE4OC42Nyw2NjcsMTk3LjY3IiBzdHlsZT0ic3Ryb2tlOiMxODE4MTg7c3Ryb2tlLXdpZHRoOjEuMDsiLz48L2c+PCEtLWxpbmsgc3ByaW5nYm9vdCB0byBqcGEtLT48ZyBpZD0ibGlua19zcHJpbmdib290X2pwYSI+PHBhdGggZD0iTTM5Ni4yMSwxMjUuMDUgQzM4MS4wNCwxNDUuNzUgMzYxLjc3NzMsMTcyLjA0MDkgMzQ2LjUzNzMsMTkyLjgzMDkgIiBmaWxsPSJub25lIiBpZD0ic3ByaW5nYm9vdC10by1qcGEiIHN0eWxlPSJzdHJva2U6IzE4MTgxODtzdHJva2Utd2lkdGg6MS4wOyIvPjxwb2x5Z29uIGZpbGw9IiMxODE4MTgiIHBvaW50cz0iMzQyLjk5LDE5Ny42NywzNTEuNTM3LDE5Mi43NzYyLDM0NS45NDYxLDE5My42Mzc0LDM0NS4wODQ4LDE4OC4wNDY1LDM0Mi45OSwxOTcuNjciIHN0eWxlPSJzdHJva2U6IzE4MTgxODtzdHJva2Utd2lkdGg6MS4wOyIvPjwvZz48IS0tbGluayBzcHJpbmdib290IHRvIHNlY3VyaXR5LS0+PGcgaWQ9Imxpbmtfc3ByaW5nYm9vdF9zZWN1cml0eSI+PHBhdGggZD0iTTQyNy43OSwxMjUuMDUgQzQ0Mi45NiwxNDUuNzUgNDYyLjIyMjcsMTcyLjA0MDkgNDc3LjQ2MjcsMTkyLjgzMDkgIiBmaWxsPSJub25lIiBpZD0ic3ByaW5nYm9vdC10by1zZWN1cml0eSIgc3R5bGU9InN0cm9rZTojMTgxODE4O3N0cm9rZS13aWR0aDoxLjA7Ii8+PHBvbHlnb24gZmlsbD0iIzE4MTgxOCIgcG9pbnRzPSI0ODEuMDEsMTk3LjY3LDQ3OC45MTUyLDE4OC4wNDY1LDQ3OC4wNTM5LDE5My42Mzc0LDQ3Mi40NjMsMTkyLjc3NjIsNDgxLjAxLDE5Ny42NyIgc3R5bGU9InN0cm9rZTojMTgxODE4O3N0cm9rZS13aWR0aDoxLjA7Ii8+PC9nPjwhLS1saW5rIGpwYSB0byBteXNxbC0tPjxnIGlkPSJsaW5rX2pwYV9teXNxbCI+PHBhdGggZD0iTTMyNywyNDMuMzQgQzMyNywyNjAuODIgMzI3LDI3OS4yMiAzMjcsMjk2LjY5ICIgZmlsbD0ibm9uZSIgaWQ9ImpwYS10by1teXNxbCIgc3R5bGU9InN0cm9rZTojMTgxODE4O3N0cm9rZS13aWR0aDoxLjA7Ii8+PHBvbHlnb24gZmlsbD0iIzE4MTgxOCIgcG9pbnRzPSIzMjcsMzAyLjY5LDMzMSwyOTMuNjksMzI3LDI5Ny42OSwzMjMsMjkzLjY5LDMyNywzMDIuNjkiIHN0eWxlPSJzdHJva2U6IzE4MTgxODtzdHJva2Utd2lkdGg6MS4wOyIvPjwvZz48IS0tbGluayBqcGEgdG8gcmVkaXMtLT48ZyBpZD0ibGlua19qcGFfcmVkaXMiPjxwYXRoIGQ9Ik0zMDMuMSwyNDMuMDkgQzI4My42NSwyNjAuNjcgMjYwLjc2MDIsMjgxLjMzNTYgMjQxLjMyMDIsMjk4LjkxNTYgIiBmaWxsPSJub25lIiBpZD0ianBhLXRvLXJlZGlzIiBzdHlsZT0ic3Ryb2tlOiMxODE4MTg7c3Ryb2tlLXdpZHRoOjEuMDsiLz48cG9seWdvbiBmaWxsPSIjMTgxODE4IiBwb2ludHM9IjIzNi44NywzMDIuOTQsMjQ2LjIyODIsMjk5Ljg3MDIsMjQwLjU3ODUsMjk5LjU4NjMsMjQwLjg2MjQsMjkzLjkzNjYsMjM2Ljg3LDMwMi45NCIgc3R5bGU9InN0cm9rZTojMTgxODE4O3N0cm9rZS13aWR0aDoxLjA7Ii8+PC9nPjwhLS1saW5rIHJlZGlzX213IHRvIHJlZGlzLS0+PGcgaWQ9ImxpbmtfcmVkaXNfbXdfcmVkaXMiPjxwYXRoIGQ9Ik0xMTAuMjUsMjQzLjA5IEMxMzIuNDQsMjYwLjY3IDE1OC45MDg3LDI4MS42MzIgMTgxLjA3ODcsMjk5LjIxMiAiIGZpbGw9Im5vbmUiIGlkPSJyZWRpc19tdy10by1yZWRpcyIgc3R5bGU9InN0cm9rZTojMTgxODE4O3N0cm9rZS13aWR0aDoxLjA7Ii8+PHBvbHlnb24gZmlsbD0iIzE4MTgxOCIgcG9pbnRzPSIxODUuNzgsMzAyLjk0LDE4MS4yMTMzLDI5NC4yMTM4LDE4MS44NjIyLDI5OS44MzM0LDE3Ni4yNDI3LDMwMC40ODIzLDE4NS43OCwzMDIuOTQiIHN0eWxlPSJzdHJva2U6IzE4MTgxODtzdHJva2Utd2lkdGg6MS4wOyIvPjwvZz48IS0tbGluayBzZWN1cml0eSB0byBqd3QtLT48ZyBpZD0ibGlua19zZWN1cml0eV9qd3QiPjxwYXRoIGQ9Ik00OTcsMjQzLjM0IEM0OTcsMjYwLjgyIDQ5NywyNzkuMjIgNDk3LDI5Ni42OSAiIGZpbGw9Im5vbmUiIGlkPSJzZWN1cml0eS10by1qd3QiIHN0eWxlPSJzdHJva2U6IzE4MTgxODtzdHJva2Utd2lkdGg6MS4wOyIvPjxwb2x5Z29uIGZpbGw9IiMxODE4MTgiIHBvaW50cz0iNDk3LDMwMi42OSw1MDEsMjkzLjY5LDQ5NywyOTcuNjksNDkzLDI5My42OSw0OTcsMzAyLjY5IiBzdHlsZT0ic3Ryb2tlOiMxODE4MTg7c3Ryb2tlLXdpZHRoOjEuMDsiLz48L2c+PCEtLVNSQz1bQXFYQ3BhdkNKckxHVWh2dnpfRlR5dnprUjdnc1BnNklHWktOYm04RzVDMWFkdFJzRmItejdZV0JhYkEwV2tZbXFiSXpoRTlPWFNIWVhSQklMMkpucDk5S1kyWUcwSFFrSEpUbEdYeU15dThCWVpCcHFYTVN5bERCbURnQm1WbWE4MVVoOFMtY1JkWk1rLXZQSi1FSmRRdGVIbGFnTDBPNy1lMURvUXFpQmluMW83VzVFOEE1aW1lSTRPOTFnSWNQNDh5S1dMWE9oTmtvTy10QndMa1V4RHc2UlhVUXZsWlNTa24tTmpWdmo3SzUzWnk3Zm9RTjVjTU1MNEJ5M1VLV0VKZXkxRUJlU2ZJVzA4UXdXZ3drN0lBUzRJNDY1ZVZ2NEtxT25Ob1c2aDBXOGZYVzhlWVdXRmFCSkhYYzNpR2tlREV1UVc0MF0tLT48L2c+PC9zdmc+;" vertex="1" parent="1">
            <mxGeometry x="-30" y="-490" width="755" height="395" as="geometry" />
          </mxCell>
        </UserObject>
      </root>
    </mxGraphModel>
  </diagram>
</mxfile>
